<svg width="102" height="20" viewBox="0 0 102 20" fill="none" xmlns="http://www.w3.org/2000/svg">
<path opacity="0.8" d="M7.02734 10.377C7.02734 11.1152 6.91569 11.7669 6.69238 12.332C6.46908 12.8971 6.14779 13.3392 5.72852 13.6582C5.30924 13.9772 4.80111 14.1367 4.2041 14.1367C3.66634 14.1367 3.2015 14.0342 2.80957 13.8291C2.4222 13.6195 2.10775 13.3369 1.86621 12.9814L1.8252 14H1.05957V3.5H1.87988V7.66992C2.12598 7.29167 2.43815 6.99772 2.81641 6.78809C3.19922 6.57389 3.65723 6.4668 4.19043 6.4668C5.09277 6.4668 5.79004 6.80859 6.28223 7.49219C6.77897 8.17122 7.02734 9.08496 7.02734 10.2334V10.377ZM6.2002 10.2334C6.2002 9.65918 6.125 9.14193 5.97461 8.68164C5.82878 8.22135 5.59635 7.85677 5.27734 7.58789C4.95833 7.31445 4.54362 7.17773 4.0332 7.17773C3.41797 7.17773 2.94401 7.33268 2.61133 7.64258C2.27865 7.94792 2.03483 8.29427 1.87988 8.68164V12.0312C2.05306 12.4232 2.3151 12.7536 2.66602 13.0225C3.01693 13.2913 3.47721 13.4258 4.04688 13.4258C4.54362 13.4258 4.94922 13.2913 5.26367 13.0225C5.58268 12.7536 5.81738 12.389 5.96777 11.9287C6.12272 11.4684 6.2002 10.9512 6.2002 10.377V10.2334ZM13.3369 6.60352H14.2188L11.0879 15.1895C11.0059 15.4128 10.8896 15.6634 10.7393 15.9414C10.5889 16.224 10.377 16.4678 10.1035 16.6729C9.83008 16.8825 9.46777 16.9873 9.0166 16.9873C8.93001 16.9873 8.81836 16.9759 8.68164 16.9531C8.54948 16.9349 8.4515 16.9167 8.3877 16.8984V16.2148C8.43783 16.2285 8.51074 16.2399 8.60645 16.249C8.70215 16.2581 8.76823 16.2627 8.80469 16.2627C9.24674 16.2627 9.58626 16.1488 9.82324 15.9209C10.0648 15.6976 10.263 15.3649 10.418 14.9229L10.7803 13.9385L7.99121 6.60352H8.87988L11.1836 12.8174L13.3369 6.60352Z" fill="white"/>
<g opacity="0.8" clip-path="url(#clip0)">
<path d="M48.2355 4.98291C50.3055 4.98291 51.641 6.23471 51.641 9.93671C51.641 13.6387 50.2983 14.8905 48.2355 14.8905C46.9462 14.8905 46.1289 14.4554 45.6205 13.7117V18.7943C45.3187 18.8762 45.0062 18.9122 44.6937 18.9013C44.3931 18.9131 44.0926 18.877 43.8034 18.7943V5.29161C44.0893 5.19272 44.3915 5.14899 44.6937 5.16278C45.0079 5.15002 45.3218 5.19365 45.6205 5.29161V6.16182C46.1289 5.41801 46.9462 4.98291 48.2355 4.98291ZM47.5982 6.47049C46.3284 6.47049 45.6205 7.52304 45.6205 8.75782V11.0792C45.6205 12.3334 46.3284 13.4029 47.5982 13.4029C49.0577 13.4029 49.7874 12.6421 49.7874 9.93671C49.7874 7.23132 49.0528 6.47049 47.5982 6.47049Z" fill="white"/>
<path d="M55.8104 3.33003C55.5054 3.42616 55.1862 3.46972 54.8665 3.45886C54.5459 3.47522 54.2249 3.43153 53.9203 3.33003V1.62852C54.2249 1.52702 54.5459 1.48332 54.8665 1.49969C55.1862 1.48883 55.5054 1.53239 55.8104 1.62852V3.33003ZM55.7739 14.5843C55.4816 14.6812 55.1743 14.7249 54.8665 14.7131C54.5578 14.7307 54.2485 14.6869 53.9568 14.5843V5.29162C54.2485 5.18902 54.5578 5.14523 54.8665 5.16279C55.1743 5.15104 55.4816 5.19468 55.7739 5.29162V14.5843Z" fill="white"/>
<path d="M61.4586 4.98291C63.2392 4.98291 64.0201 5.46905 64.0201 5.46905C64.0346 5.94315 63.8656 6.4046 63.5482 6.75732C62.9296 6.57049 62.2873 6.4731 61.6411 6.4681C60.4054 6.4681 59.7875 6.92265 59.7875 7.77582C59.7875 8.62899 60.9332 8.88177 62.0765 9.26343C63.2563 9.64504 64.492 10.2065 64.492 11.9858C64.492 13.8186 63.3487 14.8881 61.0402 14.8881C59.1356 14.8881 58.0093 14.2367 58.0093 14.2367C57.9975 13.9916 58.0344 13.7467 58.118 13.5159C58.2015 13.2852 58.3299 13.0733 58.4958 12.8925C59.2831 13.1757 60.1113 13.3292 60.9478 13.347C62.057 13.347 62.6919 12.9289 62.6919 12.0393C62.6919 11.0427 61.6922 10.8239 60.6219 10.5153C59.3861 10.153 58.0409 9.6256 58.0409 7.82927C58.0434 6.12538 59.1526 4.98291 61.4586 4.98291Z" fill="white"/>
<path d="M73.9376 14.5842C73.6453 14.6812 73.3379 14.7248 73.0302 14.7131C72.7215 14.7275 72.4129 14.6838 72.1204 14.5842V8.05045C72.1204 7.03201 71.595 6.45351 70.4322 6.45351C70.0208 6.46201 69.6179 6.5724 69.2595 6.77479C68.9013 6.97712 68.5988 7.26512 68.3792 7.61295V14.5842C68.0864 14.679 67.7795 14.7226 67.4719 14.7131C67.1639 14.7305 66.8555 14.6867 66.5645 14.5842V1.21528C66.8559 1.11468 67.1641 1.07175 67.4719 1.08888C67.7793 1.07971 68.0861 1.12245 68.3792 1.21528V6.12534C68.7255 5.74645 69.1506 5.44783 69.6245 5.25048C70.0985 5.05312 70.61 4.96179 71.1231 4.9829C72.9378 4.9829 73.9376 6.0889 73.9376 7.72234V14.5842Z" fill="white"/>
<path d="M76.465 5.29174C76.7571 5.19443 77.0645 5.15078 77.3723 5.16291C77.6802 5.14802 77.9883 5.19174 78.2797 5.29174V11.8255C78.2797 12.8415 78.8073 13.4225 79.9704 13.4225C80.3818 13.4155 80.7854 13.3054 81.1435 13.1025C81.5021 12.8995 81.8034 12.6101 82.0208 12.2606V5.29174C82.3143 5.1974 82.6223 5.15384 82.9303 5.16291C83.2383 5.14548 83.5469 5.18927 83.8377 5.29174V14.5844C83.5469 14.6869 83.2383 14.7307 82.9303 14.7132C82.6223 14.7223 82.3143 14.6787 82.0208 14.5844V13.7482C81.6727 14.1268 81.2463 14.425 80.771 14.6223C80.2962 14.8196 79.7836 14.9112 79.2698 14.8907C77.4526 14.8907 76.4552 13.7847 76.4552 12.1512L76.465 5.29174Z" fill="white"/>
<path d="M90.5226 4.99996C91.0825 4.99334 91.6323 5.1514 92.1038 5.4545C92.0882 5.75124 92.0093 6.04124 91.8708 6.30435C91.733 6.56746 91.5389 6.79752 91.3032 6.97857C90.9802 6.73041 90.5843 6.59618 90.1768 6.59696C89.4691 6.59696 88.7785 7.14141 88.3065 7.97757V14.5843C88.0141 14.6812 87.7066 14.7249 87.3992 14.7131C87.0901 14.7302 86.781 14.6865 86.4891 14.5843V5.29164C86.781 5.18948 87.0901 5.14571 87.3992 5.16282C87.7066 5.15107 88.0141 5.1947 88.3065 5.29164V6.54346C88.9998 5.39859 89.7949 4.99996 90.5226 4.99996Z" fill="white"/>
<path d="M95.1004 10.5007C95.2467 12.6592 96.1173 13.3495 97.6256 13.3495C98.3729 13.3587 99.1106 13.1771 99.7683 12.822C100.127 13.1645 100.336 13.6344 100.35 14.1297C100.35 14.1297 99.3136 14.8905 97.3338 14.8905C94.5384 14.8905 93.2296 13.1672 93.2296 9.88326C93.2296 6.45349 94.838 4.98291 97.2704 4.98291C99.5032 4.98291 100.866 6.21527 100.866 8.62899C100.875 9.25865 100.808 9.88715 100.666 10.5007H95.1004ZM97.2704 6.41704C96.0878 6.41704 95.2539 7.19732 95.1077 9.20993H99C99.0345 8.9391 99.0528 8.66632 99.0534 8.39321C99.0411 7.32371 98.6058 6.41704 97.2704 6.41704Z" fill="white"/>
<path d="M37.9921 3.06763H34.6109L36.8318 5.28688C37.3322 5.7847 37.7693 6.34231 38.1332 6.94709C38.2572 7.15125 38.3764 7.36031 38.4835 7.57664C38.5394 7.68359 38.5905 7.79298 38.6391 7.90231C38.6683 7.96798 38.6975 8.03359 38.7243 8.0992C38.7511 8.16487 38.7802 8.23048 38.807 8.29853C38.8581 8.43225 38.9092 8.56837 38.9554 8.70448C38.9894 8.80414 39.021 8.9062 39.0527 9.00831V4.13228C39.0533 3.9927 39.0264 3.85437 38.9733 3.72522C38.9203 3.59608 38.8423 3.47868 38.7438 3.37975C38.6452 3.28082 38.5281 3.20232 38.3991 3.14876C38.2701 3.0952 38.1318 3.06762 37.9921 3.06763Z" fill="#F5A3AE"/>
<path d="M34.0904 3.06758L31.3294 0.311141C31.2309 0.212583 31.1139 0.134395 30.9852 0.081049C30.8564 0.0277025 30.7184 0.000244141 30.579 0.000244141C30.4396 0.000244141 30.3016 0.0277025 30.1728 0.081049C30.044 0.134395 29.9271 0.212583 29.8285 0.311141L27.4374 2.70055H30.5802C31.4344 2.70022 32.2841 2.82386 33.1027 3.06758C33.6889 3.24101 34.2548 3.47651 34.7909 3.77006L34.0904 3.06758Z" fill="#EF7586"/>
<path d="M39.0454 11.1813C39.0454 11.1449 39.0454 11.1109 39.0454 11.0768C39.0454 10.9577 39.0308 10.8338 39.0186 10.7219C39.0065 10.6101 38.9894 10.4522 38.97 10.3184C38.9505 10.1848 38.9286 10.0511 38.9018 9.91739C38.8751 9.78367 38.8484 9.65244 38.8143 9.51872C38.7803 9.38506 38.7535 9.27567 38.717 9.15411C38.717 9.10794 38.6902 9.06178 38.6756 9.01556C38.6489 8.92806 38.6197 8.84056 38.5905 8.7555L38.5759 8.71417C38.5419 8.61939 38.5054 8.52456 38.4689 8.42978L38.4251 8.32039C38.3894 8.228 38.3505 8.13811 38.3084 8.05056L38.2718 7.97039C38.2281 7.87317 38.1794 7.77589 38.1308 7.68111L38.0651 7.55717C38.0091 7.44778 37.9483 7.34083 37.8851 7.23383C37.8218 7.12689 37.778 7.05883 37.7221 6.97133C37.6662 6.88383 37.564 6.72828 37.4788 6.614C37.4502 6.57033 37.4194 6.52817 37.3864 6.48761C37.3013 6.37339 37.2137 6.25917 37.1237 6.14978C37.0337 6.04039 36.9996 6.0015 36.9339 5.92856L36.8513 5.83378C36.7588 5.73411 36.6664 5.63689 36.5715 5.53964C35.7853 4.75276 34.8513 4.12868 33.8231 3.70323C32.795 3.27777 31.693 3.05928 30.5802 3.06031H23.1683C23.0279 3.0603 22.8888 3.08809 22.7592 3.14208C22.6296 3.19607 22.512 3.27518 22.4132 3.37486C22.3143 3.47452 22.2362 3.59277 22.1834 3.72277C22.1305 3.85277 22.104 3.99194 22.1053 4.13226V11.5338C22.1053 11.6505 22.1053 11.7769 22.1053 11.8863C22.1053 11.9227 22.1053 11.9568 22.1053 11.9908C22.1053 12.1099 22.1199 12.2338 22.132 12.3457C22.1442 12.4575 22.1612 12.6155 22.1807 12.7492C22.2001 12.8829 22.222 13.019 22.2488 13.1527C22.2755 13.2864 22.3145 13.4176 22.3485 13.5513C22.3826 13.685 22.4093 13.7944 22.4434 13.9086C22.4774 14.0229 22.5383 14.2173 22.5918 14.3681C22.6226 14.4572 22.6566 14.5471 22.6939 14.6378C22.7134 14.6841 22.7304 14.7278 22.7499 14.7716C22.7694 14.8153 22.7864 14.8591 22.8058 14.9004C22.8252 14.9508 22.8472 15.0003 22.8715 15.0487C22.8865 15.0852 22.9036 15.1209 22.9226 15.1556C22.9262 15.1694 22.9319 15.1825 22.9396 15.1945C22.9785 15.2771 23.0199 15.3598 23.0637 15.4376C23.0734 15.4614 23.0856 15.4843 23.1002 15.5056C23.1072 15.5236 23.1161 15.5407 23.1269 15.5567C23.1393 15.5826 23.1531 15.6077 23.1683 15.632C23.1878 15.6714 23.2097 15.7096 23.234 15.7463C23.2451 15.7699 23.2581 15.7927 23.2729 15.8143L23.2899 15.8411C23.3191 15.8921 23.3483 15.9432 23.3823 15.9942C23.4164 16.0452 23.4505 16.106 23.4869 16.1595L23.5064 16.1887L23.5502 16.2567L23.5867 16.3078L23.6353 16.3782L23.6718 16.4268C23.6986 16.4682 23.7302 16.5095 23.7594 16.5508L23.7861 16.5873C23.8575 16.6813 23.9305 16.7737 24.0051 16.8644L24.0391 16.9082L24.0732 16.9471C24.1291 17.0175 24.1899 17.0832 24.2483 17.1512L24.2945 17.2096L24.3091 17.2266L24.3335 17.2509C24.3418 17.2604 24.3507 17.2693 24.3602 17.2776C24.4332 17.3603 24.511 17.4405 24.6035 17.5207C24.6959 17.6009 24.7981 17.7103 24.8978 17.8002L24.9611 17.8561C25.0219 17.9121 25.0803 17.9631 25.1435 18.0141L25.1946 18.0579L25.2384 18.0919C25.3211 18.1599 25.4062 18.2256 25.4816 18.2888C25.4886 18.2966 25.4968 18.3032 25.5059 18.3082C25.5951 18.3763 25.6876 18.4419 25.7833 18.5051L25.8684 18.5659C25.9073 18.5926 25.9438 18.6169 25.9827 18.6388L26.007 18.6558L26.0703 18.6947L26.097 18.7093L26.1311 18.7336L26.1749 18.7603L26.2211 18.7871C26.3233 18.8487 26.4254 18.907 26.5276 18.9621L26.5592 18.9791L26.71 19.0593C26.7684 19.0909 26.8292 19.1201 26.89 19.1468C26.9849 19.193 27.0822 19.2368 27.1795 19.2781C27.2214 19.2992 27.2644 19.3179 27.3084 19.334L27.4447 19.3899C27.5339 19.4272 27.6239 19.4612 27.7147 19.492C27.8655 19.5455 28.0187 19.5965 28.1744 19.6403C28.2928 19.6743 28.412 19.7059 28.532 19.7351C28.6658 19.7691 28.7971 19.7983 28.931 19.8226C29.0647 19.8469 29.1985 19.8712 29.3348 19.8907C29.471 19.9101 29.6023 19.9271 29.7386 19.9393C29.8748 19.9514 29.9818 19.9587 30.0937 19.966H30.1983C30.315 19.966 30.4415 19.966 30.551 19.966C30.6605 19.966 30.7942 19.966 30.9037 19.966H31.0059C31.1251 19.966 31.2491 19.9514 31.361 19.9393C31.473 19.9271 31.6335 19.9101 31.7673 19.8907C31.901 19.8712 32.0348 19.8493 32.1686 19.8226C32.3024 19.7958 32.4338 19.7691 32.5675 19.7351C32.7014 19.7011 32.8108 19.6743 32.9251 19.6403L33.0687 19.5965L33.3314 19.5114L33.3728 19.4969L33.6574 19.3899C33.7474 19.3559 33.8398 19.317 33.9273 19.2757C34.0149 19.2343 34.122 19.1906 34.2168 19.1444H34.2314H34.2582C34.3652 19.0942 34.4698 19.0407 34.572 18.984H34.589C34.6066 18.9752 34.6236 18.9654 34.6401 18.9548C34.7244 18.9094 34.8095 18.8608 34.8955 18.8089C34.9612 18.7725 35.0244 18.7336 35.0877 18.6899L35.1169 18.6728L35.2555 18.5829C35.3309 18.5319 35.4039 18.4833 35.4744 18.4298L35.5985 18.3423L35.6204 18.3253C35.7128 18.2548 35.8053 18.1843 35.8953 18.1089L35.939 18.0749L35.9829 18.0384L36.0242 18.0019C36.0704 17.9655 36.1142 17.9266 36.158 17.8853L36.2091 17.844L36.2407 17.8148C36.3404 17.7224 36.4377 17.6301 36.5326 17.5353C36.6274 17.4404 36.7223 17.3408 36.8123 17.2412C36.9023 17.1415 36.9364 17.1026 36.9948 17.0321L37.0799 16.9349C37.0905 16.9205 37.1019 16.9067 37.114 16.8936C37.1723 16.8206 37.2332 16.7428 37.2891 16.6675C37.3042 16.6507 37.3181 16.6329 37.3305 16.614C37.3986 16.5233 37.4642 16.4309 37.5275 16.3369L37.5883 16.2518C37.6151 16.2129 37.6394 16.1765 37.6613 16.1376C37.6678 16.1301 37.6734 16.1219 37.6783 16.1133L37.7172 16.0501L37.7318 16.0233L37.7562 15.9893C37.7676 15.9729 37.7781 15.9558 37.7877 15.9383L37.8145 15.8921C37.8761 15.79 37.9345 15.6879 37.9897 15.5858L38.0067 15.5542C38.031 15.5129 38.0529 15.4692 38.0748 15.4254C38.0756 15.4181 38.0756 15.4108 38.0748 15.4035C38.104 15.3452 38.1332 15.2868 38.16 15.2285C38.2062 15.1337 38.25 15.0365 38.2913 14.9393C38.3124 14.8974 38.3311 14.8544 38.3473 14.8104C38.3667 14.7667 38.3837 14.7229 38.4032 14.6767C38.4405 14.5892 38.4745 14.4993 38.5054 14.4069C38.5054 14.3802 38.5224 14.3534 38.5321 14.3267C38.5759 14.2027 38.6172 14.0837 38.6538 13.9475C38.6902 13.8114 38.7194 13.7044 38.7486 13.5902C38.7656 13.5246 38.7803 13.4614 38.7924 13.3982C38.8046 13.335 38.8118 13.3179 38.8192 13.2791C38.8244 13.2558 38.8285 13.2323 38.8314 13.2086C38.8324 13.2029 38.8324 13.1972 38.8314 13.1916C38.8325 13.1827 38.8325 13.1737 38.8314 13.1648C38.8459 13.0919 38.8581 13.019 38.8703 12.9436L38.8848 12.8634C38.8848 12.8391 38.8848 12.8148 38.8848 12.7881C38.9043 12.6544 38.9213 12.5207 38.9335 12.3846C38.9457 12.2484 38.9529 12.1415 38.9602 12.0297C38.9602 11.9957 38.9602 11.9616 38.9602 11.9252C38.9602 11.8085 38.9602 11.6821 38.9602 11.5727C38.9602 11.4633 39.0502 11.2981 39.0454 11.1813ZM35.8077 11.8036C35.8077 11.8814 35.8077 11.9592 35.7907 12.0346C35.7736 12.1099 35.7907 12.1366 35.7736 12.1852C35.7566 12.2338 35.759 12.3043 35.7493 12.3627C35.7396 12.421 35.725 12.5061 35.7104 12.579C35.6958 12.6519 35.6788 12.7249 35.6593 12.7953C35.647 12.8537 35.6316 12.9113 35.6131 12.9679C35.6084 12.9937 35.6011 13.019 35.5912 13.0433C35.5787 13.0947 35.5624 13.145 35.5425 13.194C35.5255 13.2523 35.5061 13.3107 35.4841 13.3666C35.4623 13.4225 35.4355 13.4954 35.4088 13.5586L35.3869 13.6121C35.3601 13.6704 35.3334 13.7263 35.309 13.7822C35.2847 13.8381 35.2871 13.8236 35.2774 13.843C35.2482 13.9062 35.2166 13.9669 35.1825 14.0277C35.1485 14.0885 35.0998 14.176 35.0561 14.2465C35.0122 14.317 34.966 14.3899 34.9198 14.4604C34.8736 14.5309 34.8249 14.5965 34.7738 14.6646C34.7228 14.7327 34.6206 14.8615 34.5306 14.9563C34.4892 15.0024 34.4479 15.0511 34.4041 15.0973L34.2728 15.2309C34.1551 15.3504 34.0309 15.4632 33.9006 15.5688L33.7595 15.6806C33.6719 15.7511 33.5795 15.8167 33.4846 15.8799L33.2852 16.0063C33.2341 16.0404 33.1781 16.0696 33.1246 16.0987C33.0862 16.1229 33.0465 16.1449 33.0054 16.1643C32.93 16.2057 32.8546 16.2421 32.7768 16.2786L32.5335 16.3807L32.3097 16.4658H32.2806L32.0616 16.5362L31.8183 16.5994C31.7356 16.6189 31.6529 16.6383 31.5751 16.6529C31.4973 16.6675 31.3319 16.6942 31.2272 16.7088L31.0764 16.7258C30.9986 16.7258 30.9232 16.7404 30.8453 16.7428C30.7675 16.7453 30.6654 16.7428 30.5753 16.7428C30.4853 16.7428 30.3953 16.7428 30.3053 16.7428C30.2153 16.7428 30.1496 16.7428 30.0743 16.7258L29.9234 16.7088C29.8067 16.6942 29.6802 16.6772 29.5755 16.6529C29.471 16.6286 29.4101 16.6189 29.3323 16.5994L29.1328 16.5459C29.1103 16.5417 29.0884 16.5352 29.0672 16.5265L28.8896 16.4706L28.8312 16.4512L28.6123 16.3685C28.5344 16.3369 28.4566 16.3029 28.3812 16.2664C28.3058 16.2299 28.2255 16.1935 28.1379 16.1522C28.097 16.1327 28.0571 16.1108 28.0187 16.0866L27.8582 15.9942L27.6587 15.8678C27.5639 15.8046 27.4714 15.7389 27.3839 15.6685L27.2428 15.5567C27.1138 15.4497 26.9995 15.3379 26.8706 15.2188C26.8244 15.1751 26.7806 15.1313 26.7392 15.0851C26.6979 15.0389 26.6541 14.9903 26.6127 14.9441C26.5317 14.8485 26.4506 14.7513 26.3695 14.6524C26.3176 14.5844 26.2689 14.5163 26.2235 14.4482C26.1773 14.3778 26.1311 14.3073 26.0873 14.2343C26.0435 14.1614 26.0022 14.0909 25.9608 14.0156C25.9195 13.9402 25.8951 13.8941 25.866 13.8308L25.8343 13.7701C25.8173 13.7312 25.7978 13.6923 25.7808 13.651C25.7638 13.6097 25.737 13.5513 25.7176 13.5003C25.6738 13.3957 25.6349 13.2912 25.6008 13.1818C25.581 13.1328 25.5647 13.0825 25.5522 13.0311C25.5423 13.0068 25.535 12.9816 25.5303 12.9558C25.5118 12.8991 25.4963 12.8415 25.4841 12.7832C25.4646 12.7127 25.4476 12.6398 25.433 12.5669C25.4184 12.4939 25.4062 12.4234 25.394 12.3506C25.3819 12.2776 25.377 12.2339 25.3697 12.1731C25.3624 12.1123 25.3576 12.0734 25.3527 12.0224C25.3478 11.9713 25.3381 11.8693 25.3357 11.7914C25.3332 11.7137 25.3357 11.6116 25.3357 11.5217C25.3357 11.4317 25.3357 11.3418 25.3357 11.2518C25.3357 11.1619 25.3357 11.0963 25.3527 11.0088C25.3697 10.9213 25.3527 10.9091 25.3697 10.8581C25.3867 10.807 25.3843 10.7389 25.394 10.6806C25.4038 10.6223 25.4184 10.5372 25.433 10.4667C25.4476 10.3962 25.4622 10.3306 25.4792 10.265C25.4936 10.1977 25.5115 10.1311 25.5327 10.0657C25.5369 10.0432 25.5435 10.0212 25.5522 10C25.5654 9.94889 25.5817 9.89856 25.6008 9.84933C25.6349 9.73994 25.6738 9.63539 25.7176 9.53089C25.737 9.47983 25.7589 9.42878 25.7808 9.38017L25.8343 9.2635C25.8434 9.24172 25.854 9.22061 25.866 9.20033C25.8951 9.13711 25.9268 9.07633 25.9608 9.01556C25.9949 8.95483 26.0435 8.86733 26.0873 8.79683C26.1311 8.72633 26.1773 8.65339 26.2235 8.58289C26.2698 8.51244 26.3184 8.44678 26.3695 8.37872C26.4206 8.31067 26.5227 8.18183 26.6127 8.08706C26.6541 8.04083 26.6954 7.99222 26.7392 7.94606C26.783 7.89989 26.8244 7.85611 26.8706 7.81239C26.9898 7.69328 27.1138 7.58144 27.2428 7.4745L27.3839 7.36267C27.4714 7.29222 27.5639 7.22656 27.6587 7.16339L27.8582 7.03694L28.0187 6.94461C28.0571 6.92039 28.097 6.89844 28.1379 6.879C28.2133 6.83767 28.2912 6.79878 28.3812 6.76472C28.4712 6.73072 28.5344 6.69422 28.6123 6.66267L28.8312 6.58L28.8896 6.56056L29.0672 6.50467C29.0884 6.49594 29.1103 6.48944 29.1328 6.48522L29.3323 6.43172C29.4126 6.41228 29.4953 6.39283 29.5755 6.37822C29.6558 6.36367 29.8067 6.33694 29.9234 6.32233L30.0743 6.30533C30.1496 6.30533 30.2275 6.29072 30.3053 6.28833C30.3831 6.28589 30.4853 6.28833 30.5753 6.28833C30.6654 6.28833 30.7553 6.28833 30.8453 6.28833C30.9353 6.28833 30.9986 6.28833 31.0764 6.30533L31.2272 6.32233C31.344 6.33694 31.4705 6.35394 31.5751 6.37822C31.6797 6.40256 31.7381 6.41228 31.8183 6.43172L32.0616 6.49494L32.2806 6.56539H32.3097L32.5335 6.6505C32.6114 6.68289 32.6924 6.71694 32.7768 6.75256C32.8546 6.78906 32.93 6.8255 33.0054 6.86683C33.0465 6.88628 33.0862 6.90822 33.1246 6.93244C33.1781 6.96161 33.2341 6.99078 33.2852 7.02483L33.4846 7.15122C33.5795 7.21439 33.6719 7.28006 33.7595 7.35056L33.9006 7.46233C34.0309 7.56794 34.1551 7.68072 34.2728 7.80022L34.4041 7.93389C34.4479 7.98011 34.4892 8.02872 34.5306 8.07489C34.6117 8.1705 34.6928 8.26772 34.7738 8.36656C34.8242 8.43461 34.8728 8.50272 34.9198 8.57078C34.966 8.64122 35.0122 8.71172 35.0561 8.78467C35.0998 8.85761 35.1412 8.92806 35.1825 9.00344C35.2239 9.07878 35.2482 9.12494 35.2774 9.18817C35.2894 9.2085 35.3 9.22961 35.309 9.25139L35.3869 9.41906L35.4088 9.47256C35.4355 9.53578 35.4599 9.59894 35.4841 9.66461C35.5085 9.73022 35.5255 9.77883 35.5425 9.83717C35.5617 9.88639 35.5779 9.93672 35.5912 9.98789C35.5999 10.009 35.6064 10.031 35.6106 10.0535C35.6319 10.119 35.6498 10.1855 35.6642 10.2528C35.6812 10.3184 35.6983 10.3865 35.7104 10.4546C35.7225 10.5226 35.7372 10.598 35.7493 10.6685C35.7615 10.7389 35.7664 10.7852 35.7736 10.8459C35.7809 10.9067 35.7858 10.9456 35.7907 10.9966C35.7955 11.0477 35.8053 11.1498 35.8077 11.2397C35.8101 11.3296 35.8077 11.4196 35.8077 11.5095C35.8077 11.5994 35.8126 11.7137 35.8077 11.8036Z" fill="#E51935"/>
</g>
<defs>
<clipPath id="clip0">
<rect width="78.9474" height="20" fill="white" transform="translate(22.1053)"/>
</clipPath>
</defs>
</svg>
