<svg width="535" height="371" viewBox="0 0 535 371" fill="none" xmlns="http://www.w3.org/2000/svg">
<g filter="url(#filter0_bd)">
<rect x="24" y="20" width="487" height="323" rx="12" fill="url(#paint0_linear)"/>
<rect x="24.5" y="20.5" width="486" height="322" rx="11.5" stroke="url(#paint1_linear)"/>
</g>
<path d="M92.248 126.135V124.985C91.9209 124.985 91.5815 124.968 91.23 124.934C90.8784 124.9 90.5488 124.849 90.2412 124.78C89.9336 124.707 89.5796 124.58 89.1792 124.399V122.993C89.5015 123.159 89.8164 123.301 90.124 123.418C90.4365 123.535 90.7637 123.628 91.1055 123.696C91.4521 123.765 91.833 123.813 92.248 123.843V119.763L91.4644 119.338C89.98 118.542 89.2378 117.581 89.2378 116.453C89.2378 115.852 89.4844 115.269 89.9775 114.702C90.4707 114.131 91.2275 113.801 92.248 113.713V112.498H93.2734V113.713C93.8496 113.713 94.5308 113.813 95.3169 114.014V115.281L95.0605 115.208C94.3232 115.002 93.7275 114.878 93.2734 114.834V118.818L94.0938 119.287C94.8652 119.731 95.3926 120.168 95.6758 120.598C95.9639 121.028 96.1079 121.484 96.1079 121.968C96.1079 122.402 95.998 122.825 95.7783 123.235C95.5635 123.64 95.2534 123.989 94.8481 124.282C94.4429 124.575 93.918 124.778 93.2734 124.89V126.135H92.248ZM92.248 118.203V114.819C91.7549 114.932 91.374 115.117 91.1055 115.376C90.8418 115.635 90.71 115.938 90.71 116.284C90.71 116.611 90.8223 116.926 91.0469 117.229C91.2764 117.527 91.6768 117.852 92.248 118.203ZM93.2734 120.371V123.74C93.8057 123.55 94.1646 123.318 94.3501 123.044C94.5405 122.766 94.6357 122.456 94.6357 122.114C94.6357 121.782 94.543 121.499 94.3574 121.265C94.1719 121.025 93.8105 120.728 93.2734 120.371ZM101.506 125.344C101.179 125.344 100.898 125.227 100.664 124.993C100.429 124.758 100.312 124.478 100.312 124.15C100.312 123.818 100.429 123.538 100.664 123.308C100.903 123.074 101.184 122.957 101.506 122.957C101.828 122.957 102.106 123.074 102.341 123.308C102.58 123.538 102.7 123.818 102.7 124.15C102.7 124.478 102.583 124.758 102.348 124.993C102.114 125.227 101.833 125.344 101.506 125.344ZM112.529 123.162C112.114 123.845 111.613 124.36 111.027 124.707C110.446 125.054 109.912 125.227 109.423 125.227C108.74 125.227 108.125 124.932 107.578 124.341C107.036 123.75 106.765 122.854 106.765 121.653C106.765 120.706 106.945 119.861 107.307 119.119C107.668 118.372 108.151 117.783 108.757 117.354C109.362 116.919 110.112 116.702 111.005 116.702C111.264 116.702 111.655 116.729 112.177 116.782C112.255 116.792 112.373 116.804 112.529 116.819H113.898V122.598C113.898 123.584 114.001 124.385 114.206 125H112.785C112.678 124.551 112.592 123.938 112.529 123.162ZM112.529 121.543V118.035C112.045 117.908 111.596 117.844 111.181 117.844C110.341 117.844 109.641 118.169 109.079 118.818C108.522 119.468 108.244 120.352 108.244 121.47C108.244 122.28 108.396 122.893 108.698 123.308C109.006 123.718 109.355 123.923 109.746 123.923C110.17 123.923 110.639 123.708 111.152 123.279C111.665 122.849 112.124 122.271 112.529 121.543ZM116.286 128.208V126.934C117.048 127.158 117.69 127.271 118.212 127.271C118.667 127.271 119.052 127.19 119.37 127.029C119.687 126.873 119.934 126.606 120.109 126.23C120.29 125.854 120.38 125.2 120.38 124.268V117.954H116.909V116.819H121.743V124.011C121.743 125.398 121.579 126.36 121.252 126.897C120.925 127.439 120.529 127.827 120.065 128.062C119.602 128.296 118.967 128.413 118.161 128.413C117.58 128.413 116.955 128.345 116.286 128.208ZM120.153 113.867C120.153 113.56 120.256 113.33 120.461 113.179C120.671 113.027 120.871 112.952 121.062 112.952C121.252 112.952 121.45 113.027 121.655 113.179C121.865 113.33 121.97 113.56 121.97 113.867C121.97 114.17 121.865 114.397 121.655 114.548C121.45 114.7 121.252 114.775 121.062 114.775C120.871 114.775 120.671 114.7 120.461 114.548C120.256 114.397 120.153 114.17 120.153 113.867ZM130.546 123.162C130.131 123.845 129.631 124.36 129.045 124.707C128.464 125.054 127.929 125.227 127.441 125.227C126.757 125.227 126.142 124.932 125.595 124.341C125.053 123.75 124.782 122.854 124.782 121.653C124.782 120.706 124.963 119.861 125.324 119.119C125.686 118.372 126.169 117.783 126.774 117.354C127.38 116.919 128.129 116.702 129.023 116.702C129.282 116.702 129.672 116.729 130.195 116.782C130.273 116.792 130.39 116.804 130.546 116.819H131.916V122.598C131.916 123.584 132.019 124.385 132.224 125H130.803C130.695 124.551 130.61 123.938 130.546 123.162ZM130.546 121.543V118.035C130.063 117.908 129.614 117.844 129.199 117.844C128.359 117.844 127.658 118.169 127.097 118.818C126.54 119.468 126.262 120.352 126.262 121.47C126.262 122.28 126.413 122.893 126.716 123.308C127.023 123.718 127.373 123.923 127.763 123.923C128.188 123.923 128.657 123.708 129.169 123.279C129.682 122.849 130.141 122.271 130.546 121.543ZM135.029 125H133.454L136.669 120.715L133.667 116.819H135.41L137.541 119.565L139.614 116.819H141.159L138.317 120.583L141.694 125H139.943L137.453 121.741L135.029 125ZM149.904 127.725C148.552 127.642 147.412 127.258 146.484 126.575C145.556 125.896 144.814 124.978 144.257 123.821C143.706 122.664 143.43 121.504 143.43 120.342C143.43 119.18 143.706 118.02 144.257 116.863C144.814 115.706 145.556 114.788 146.484 114.109C147.412 113.425 148.552 113.04 149.904 112.952V114.094C148.884 114.187 148.005 114.531 147.268 115.127C146.535 115.718 145.959 116.472 145.539 117.39C145.119 118.308 144.909 119.292 144.909 120.342C144.909 121.392 145.119 122.375 145.539 123.293C145.959 124.211 146.535 124.966 147.268 125.557C148.005 126.147 148.884 126.492 149.904 126.589V127.725ZM155.068 120.342C155.522 120.581 155.854 120.815 156.064 121.045C156.279 121.274 156.438 121.511 156.54 121.755C156.647 121.995 156.701 122.271 156.701 122.583C156.701 122.861 156.652 123.225 156.555 123.674L156.372 124.509C156.274 124.963 156.225 125.3 156.225 125.52C156.225 125.818 156.34 126.069 156.569 126.274C156.804 126.484 157.282 126.589 158.005 126.589H159.14V127.725H157.99C156.652 127.725 155.791 127.51 155.405 127.08C155.019 126.65 154.826 126.165 154.826 125.623C154.826 125.334 154.863 125.024 154.936 124.692L155.068 124.106L155.192 123.469L155.28 123.081C155.314 122.9 155.332 122.725 155.332 122.554C155.332 122.1 155.178 121.711 154.87 121.389C154.567 121.067 154.03 120.906 153.259 120.906H152.607V119.771H153.259C154.021 119.771 154.555 119.612 154.863 119.294C155.175 118.977 155.332 118.582 155.332 118.108C155.332 117.932 155.314 117.761 155.28 117.595L155.192 117.214L155.068 116.577L154.936 115.991C154.863 115.654 154.826 115.342 154.826 115.054C154.826 114.517 155.019 114.033 155.405 113.604C155.791 113.169 156.652 112.952 157.99 112.952H159.14V114.094H158.005C157.287 114.094 156.811 114.199 156.577 114.409C156.342 114.614 156.225 114.868 156.225 115.171C156.225 115.386 156.274 115.72 156.372 116.174L156.555 117.009C156.652 117.458 156.701 117.822 156.701 118.101C156.701 118.413 156.647 118.691 156.54 118.936C156.438 119.175 156.279 119.409 156.064 119.639C155.854 119.868 155.522 120.103 155.068 120.342ZM433.439 152.179V151.271C433.791 151.178 434.057 151.043 434.238 150.868C434.423 150.697 434.57 150.477 434.677 150.208C434.79 149.945 434.846 149.625 434.846 149.249C434.392 149.249 434.057 149.122 433.842 148.868C433.627 148.609 433.52 148.333 433.52 148.041C433.52 147.704 433.64 147.42 433.879 147.191C434.118 146.957 434.396 146.839 434.714 146.839C435.124 146.839 435.478 147.018 435.776 147.374C436.074 147.726 436.223 148.209 436.223 148.824C436.223 149.361 436.105 149.867 435.871 150.34C435.637 150.819 435.317 151.227 434.912 151.563C434.511 151.9 434.021 152.105 433.439 152.179ZM253.264 176.179V175.271C253.615 175.178 253.881 175.043 254.062 174.868C254.248 174.697 254.394 174.477 254.501 174.208C254.614 173.945 254.67 173.625 254.67 173.249C254.216 173.249 253.881 173.122 253.667 172.868C253.452 172.609 253.344 172.333 253.344 172.041C253.344 171.704 253.464 171.42 253.703 171.191C253.942 170.957 254.221 170.839 254.538 170.839C254.948 170.839 255.302 171.018 255.6 171.374C255.898 171.726 256.047 172.209 256.047 172.824C256.047 173.361 255.93 173.867 255.695 174.34C255.461 174.819 255.141 175.227 254.736 175.563C254.335 175.9 253.845 176.105 253.264 176.179ZM267.019 199.725C265.666 199.642 264.526 199.258 263.598 198.575C262.67 197.896 261.928 196.978 261.372 195.821C260.82 194.664 260.544 193.504 260.544 192.342C260.544 191.18 260.82 190.02 261.372 188.863C261.928 187.706 262.67 186.788 263.598 186.109C264.526 185.425 265.666 185.04 267.019 184.952V186.094C265.998 186.187 265.119 186.531 264.382 187.127C263.649 187.718 263.073 188.472 262.653 189.39C262.233 190.308 262.023 191.292 262.023 192.342C262.023 193.392 262.233 194.375 262.653 195.293C263.073 196.211 263.649 196.966 264.382 197.557C265.119 198.147 265.998 198.492 267.019 198.589V199.725ZM274.775 195.162C274.36 195.845 273.859 196.36 273.273 196.707C272.692 197.054 272.158 197.227 271.669 197.227C270.986 197.227 270.371 196.932 269.824 196.341C269.282 195.75 269.011 194.854 269.011 193.653C269.011 192.706 269.191 191.861 269.553 191.119C269.914 190.372 270.397 189.783 271.003 189.354C271.608 188.919 272.358 188.702 273.251 188.702C273.51 188.702 273.901 188.729 274.423 188.782C274.501 188.792 274.619 188.804 274.775 188.819V185.179H276.145V197H274.775V195.162ZM274.775 193.543V190.035C274.292 189.908 273.842 189.844 273.427 189.844C272.587 189.844 271.887 190.169 271.325 190.818C270.769 191.468 270.49 192.352 270.49 193.47C270.49 194.28 270.642 194.893 270.944 195.308C271.252 195.718 271.601 195.923 271.992 195.923C272.417 195.923 272.885 195.708 273.398 195.279C273.911 194.849 274.37 194.271 274.775 193.543ZM283.696 195.162C283.281 195.845 282.78 196.36 282.194 196.707C281.613 197.054 281.079 197.227 280.59 197.227C279.907 197.227 279.292 196.932 278.745 196.341C278.203 195.75 277.932 194.854 277.932 193.653C277.932 192.706 278.112 191.861 278.474 191.119C278.835 190.372 279.318 189.783 279.924 189.354C280.529 188.919 281.279 188.702 282.172 188.702C282.431 188.702 282.822 188.729 283.344 188.782C283.422 188.792 283.54 188.804 283.696 188.819H285.065V194.598C285.065 195.584 285.168 196.385 285.373 197H283.952C283.845 196.551 283.759 195.938 283.696 195.162ZM283.696 193.543V190.035C283.212 189.908 282.763 189.844 282.348 189.844C281.508 189.844 280.808 190.169 280.246 190.818C279.689 191.468 279.411 192.352 279.411 193.47C279.411 194.28 279.562 194.893 279.865 195.308C280.173 195.718 280.522 195.923 280.913 195.923C281.337 195.923 281.806 195.708 282.319 195.279C282.832 194.849 283.291 194.271 283.696 193.543ZM294.169 196.67C293.53 196.939 293.066 197.098 292.778 197.146C292.49 197.2 292.211 197.227 291.943 197.227C291.372 197.227 290.849 197.117 290.375 196.897C289.902 196.678 289.543 196.353 289.299 195.923C289.06 195.494 288.94 194.83 288.94 193.931V190.635H286.896V189.5H288.94V186.204H290.302V189.5H293.942V190.635H290.302V193.909C290.302 194.568 290.38 195.035 290.537 195.308C290.693 195.577 290.9 195.774 291.159 195.901C291.423 196.028 291.733 196.092 292.089 196.092C292.749 196.092 293.442 195.884 294.169 195.469V196.67ZM301.713 195.162C301.298 195.845 300.798 196.36 300.212 196.707C299.631 197.054 299.096 197.227 298.608 197.227C297.924 197.227 297.309 196.932 296.762 196.341C296.22 195.75 295.949 194.854 295.949 193.653C295.949 192.706 296.13 191.861 296.491 191.119C296.853 190.372 297.336 189.783 297.941 189.354C298.547 188.919 299.296 188.702 300.19 188.702C300.449 188.702 300.839 188.729 301.362 188.782C301.44 188.792 301.557 188.804 301.713 188.819H303.083V194.598C303.083 195.584 303.186 196.385 303.391 197H301.97C301.862 196.551 301.777 195.938 301.713 195.162ZM301.713 193.543V190.035C301.23 189.908 300.781 189.844 300.366 189.844C299.526 189.844 298.825 190.169 298.264 190.818C297.707 191.468 297.429 192.352 297.429 193.47C297.429 194.28 297.58 194.893 297.883 195.308C298.19 195.718 298.54 195.923 298.93 195.923C299.355 195.923 299.824 195.708 300.336 195.279C300.849 194.849 301.308 194.271 301.713 193.543ZM305.361 184.952C306.713 185.04 307.854 185.425 308.781 186.109C309.709 186.788 310.449 187.706 311 188.863C311.557 190.02 311.835 191.18 311.835 192.342C311.835 193.504 311.557 194.664 311 195.821C310.449 196.978 309.709 197.896 308.781 198.575C307.854 199.258 306.713 199.642 305.361 199.725V198.589C306.381 198.492 307.258 198.147 307.99 197.557C308.728 196.966 309.306 196.211 309.726 195.293C310.151 194.375 310.363 193.392 310.363 192.342C310.363 191.292 310.151 190.308 309.726 189.39C309.306 188.472 308.728 187.718 307.99 187.127C307.258 186.531 306.381 186.187 305.361 186.094V184.952ZM326.235 192.342C326.689 192.581 327.021 192.815 327.231 193.045C327.446 193.274 327.604 193.511 327.707 193.755C327.814 193.995 327.868 194.271 327.868 194.583C327.868 194.861 327.819 195.225 327.722 195.674L327.539 196.509C327.441 196.963 327.392 197.3 327.392 197.52C327.392 197.818 327.507 198.069 327.736 198.274C327.971 198.484 328.449 198.589 329.172 198.589H330.307V199.725H329.157C327.819 199.725 326.958 199.51 326.572 199.08C326.186 198.65 325.993 198.165 325.993 197.623C325.993 197.334 326.03 197.024 326.103 196.692L326.235 196.106L326.359 195.469L326.447 195.081C326.481 194.9 326.499 194.725 326.499 194.554C326.499 194.1 326.345 193.711 326.037 193.389C325.734 193.067 325.197 192.906 324.426 192.906H323.774V191.771H324.426C325.188 191.771 325.722 191.612 326.03 191.294C326.342 190.977 326.499 190.582 326.499 190.108C326.499 189.932 326.481 189.761 326.447 189.595L326.359 189.214L326.235 188.577L326.103 187.991C326.03 187.654 325.993 187.342 325.993 187.054C325.993 186.517 326.186 186.033 326.572 185.604C326.958 185.169 327.819 184.952 329.157 184.952H330.307V186.094H329.172C328.454 186.094 327.978 186.199 327.744 186.409C327.509 186.614 327.392 186.868 327.392 187.171C327.392 187.386 327.441 187.72 327.539 188.174L327.722 189.009C327.819 189.458 327.868 189.822 327.868 190.101C327.868 190.413 327.814 190.691 327.707 190.936C327.604 191.175 327.446 191.409 327.231 191.639C327.021 191.868 326.689 192.103 326.235 192.342ZM209.611 221.344C209.284 221.344 209.003 221.227 208.769 220.993C208.535 220.758 208.417 220.478 208.417 220.15C208.417 219.818 208.535 219.538 208.769 219.308C209.008 219.074 209.289 218.957 209.611 218.957C209.934 218.957 210.212 219.074 210.446 219.308C210.686 219.538 210.805 219.818 210.805 220.15C210.805 220.478 210.688 220.758 210.454 220.993C210.219 221.227 209.938 221.344 209.611 221.344ZM217.456 221V210.321H215.009V209.179H218.818V219.865H221.374V221H217.456ZM227.636 221.227C226.464 221.227 225.527 220.819 224.824 220.004C224.121 219.184 223.769 218.151 223.769 216.906C223.769 215.661 224.121 214.63 224.824 213.815C225.527 213 226.464 212.592 227.636 212.592C228.803 212.592 229.738 213 230.441 213.815C231.145 214.63 231.496 215.661 231.496 216.906C231.496 218.151 231.145 219.184 230.441 220.004C229.738 220.819 228.803 221.227 227.636 221.227ZM227.636 220.092C228.364 220.092 228.942 219.809 229.372 219.242C229.802 218.676 230.017 217.897 230.017 216.906C230.017 215.919 229.802 215.143 229.372 214.577C228.942 214.01 228.364 213.727 227.636 213.727C226.904 213.727 226.323 214.01 225.893 214.577C225.463 215.143 225.249 215.919 225.249 216.906C225.249 217.897 225.463 218.676 225.893 219.242C226.323 219.809 226.904 220.092 227.636 220.092ZM238.74 219.162C238.325 219.845 237.824 220.36 237.238 220.707C236.657 221.054 236.123 221.227 235.634 221.227C234.951 221.227 234.335 220.932 233.789 220.341C233.247 219.75 232.976 218.854 232.976 217.653C232.976 216.706 233.156 215.861 233.518 215.119C233.879 214.372 234.362 213.783 234.968 213.354C235.573 212.919 236.323 212.702 237.216 212.702C237.475 212.702 237.866 212.729 238.388 212.782C238.466 212.792 238.583 212.804 238.74 212.819H240.109V218.605C240.109 219.982 240.09 220.822 240.051 221.125C240.017 221.432 239.958 221.742 239.875 222.055C239.68 222.782 239.233 223.356 238.535 223.776C237.841 224.196 237.001 224.406 236.015 224.406C235.024 224.406 234.021 224.152 233.005 223.644V222.267C233.391 222.531 233.864 222.763 234.426 222.963C234.992 223.168 235.539 223.271 236.066 223.271C236.481 223.271 236.875 223.205 237.246 223.073C237.617 222.941 237.917 222.75 238.146 222.501C238.376 222.252 238.532 221.962 238.615 221.63C238.698 221.303 238.74 220.866 238.74 220.319V219.162ZM238.74 217.543V214.035C238.256 213.908 237.807 213.844 237.392 213.844C236.552 213.844 235.852 214.169 235.29 214.818C234.733 215.468 234.455 216.352 234.455 217.47C234.455 218.28 234.606 218.893 234.909 219.308C235.217 219.718 235.566 219.923 235.957 219.923C236.381 219.923 236.85 219.708 237.363 219.279C237.875 218.849 238.334 218.271 238.74 217.543ZM249.001 223.725C247.648 223.642 246.508 223.258 245.581 222.575C244.653 221.896 243.911 220.978 243.354 219.821C242.802 218.664 242.526 217.504 242.526 216.342C242.526 215.18 242.802 214.02 243.354 212.863C243.911 211.706 244.653 210.788 245.581 210.109C246.508 209.425 247.648 209.04 249.001 208.952V210.094C247.98 210.187 247.102 210.531 246.364 211.127C245.632 211.718 245.056 212.472 244.636 213.39C244.216 214.308 244.006 215.292 244.006 216.342C244.006 217.392 244.216 218.375 244.636 219.293C245.056 220.211 245.632 220.966 246.364 221.557C247.102 222.147 247.98 222.492 249.001 222.589V223.725ZM256.757 219.162C256.342 219.845 255.842 220.36 255.256 220.707C254.675 221.054 254.14 221.227 253.652 221.227C252.968 221.227 252.353 220.932 251.806 220.341C251.264 219.75 250.993 218.854 250.993 217.653C250.993 216.706 251.174 215.861 251.535 215.119C251.896 214.372 252.38 213.783 252.985 213.354C253.591 212.919 254.34 212.702 255.234 212.702C255.493 212.702 255.883 212.729 256.406 212.782C256.484 212.792 256.601 212.804 256.757 212.819V209.179H258.127V221H256.757V219.162ZM256.757 217.543V214.035C256.274 213.908 255.825 213.844 255.41 213.844C254.57 213.844 253.869 214.169 253.308 214.818C252.751 215.468 252.473 216.352 252.473 217.47C252.473 218.28 252.624 218.893 252.927 219.308C253.234 219.718 253.583 219.923 253.974 219.923C254.399 219.923 254.868 219.708 255.38 219.279C255.893 218.849 256.352 218.271 256.757 217.543ZM265.678 219.162C265.263 219.845 264.763 220.36 264.177 220.707C263.596 221.054 263.061 221.227 262.573 221.227C261.889 221.227 261.274 220.932 260.727 220.341C260.185 219.75 259.914 218.854 259.914 217.653C259.914 216.706 260.095 215.861 260.456 215.119C260.817 214.372 261.301 213.783 261.906 213.354C262.512 212.919 263.261 212.702 264.155 212.702C264.414 212.702 264.804 212.729 265.327 212.782C265.405 212.792 265.522 212.804 265.678 212.819H267.048V218.598C267.048 219.584 267.15 220.385 267.355 221H265.935C265.827 220.551 265.742 219.938 265.678 219.162ZM265.678 217.543V214.035C265.195 213.908 264.746 213.844 264.331 213.844C263.491 213.844 262.79 214.169 262.229 214.818C261.672 215.468 261.394 216.352 261.394 217.47C261.394 218.28 261.545 218.893 261.848 219.308C262.155 219.718 262.504 219.923 262.895 219.923C263.32 219.923 263.789 219.708 264.301 219.279C264.814 218.849 265.273 218.271 265.678 217.543ZM276.152 220.67C275.512 220.939 275.048 221.098 274.76 221.146C274.472 221.2 274.194 221.227 273.925 221.227C273.354 221.227 272.832 221.117 272.358 220.897C271.884 220.678 271.525 220.353 271.281 219.923C271.042 219.494 270.922 218.83 270.922 217.931V214.635H268.879V213.5H270.922V210.204H272.285V213.5H275.925V214.635H272.285V217.909C272.285 218.568 272.363 219.035 272.519 219.308C272.675 219.577 272.883 219.774 273.142 219.901C273.405 220.028 273.715 220.092 274.072 220.092C274.731 220.092 275.424 219.884 276.152 219.469V220.67ZM283.696 219.162C283.281 219.845 282.78 220.36 282.194 220.707C281.613 221.054 281.079 221.227 280.59 221.227C279.907 221.227 279.292 220.932 278.745 220.341C278.203 219.75 277.932 218.854 277.932 217.653C277.932 216.706 278.112 215.861 278.474 215.119C278.835 214.372 279.318 213.783 279.924 213.354C280.529 212.919 281.279 212.702 282.172 212.702C282.431 212.702 282.822 212.729 283.344 212.782C283.422 212.792 283.54 212.804 283.696 212.819H285.065V218.598C285.065 219.584 285.168 220.385 285.373 221H283.952C283.845 220.551 283.759 219.938 283.696 219.162ZM283.696 217.543V214.035C283.212 213.908 282.763 213.844 282.348 213.844C281.508 213.844 280.808 214.169 280.246 214.818C279.689 215.468 279.411 216.352 279.411 217.47C279.411 218.28 279.562 218.893 279.865 219.308C280.173 219.718 280.522 219.923 280.913 219.923C281.337 219.923 281.806 219.708 282.319 219.279C282.832 218.849 283.291 218.271 283.696 217.543ZM287.343 208.952C288.696 209.04 289.836 209.425 290.764 210.109C291.691 210.788 292.431 211.706 292.983 212.863C293.54 214.02 293.818 215.18 293.818 216.342C293.818 217.504 293.54 218.664 292.983 219.821C292.431 220.978 291.691 221.896 290.764 222.575C289.836 223.258 288.696 223.642 287.343 223.725V222.589C288.364 222.492 289.24 222.147 289.973 221.557C290.71 220.966 291.289 220.211 291.708 219.293C292.133 218.375 292.346 217.392 292.346 216.342C292.346 215.292 292.133 214.308 291.708 213.39C291.289 212.472 290.71 211.718 289.973 211.127C289.24 210.531 288.364 210.187 287.343 210.094V208.952ZM298.308 224.179V223.271C298.659 223.178 298.925 223.043 299.106 222.868C299.292 222.697 299.438 222.477 299.545 222.208C299.658 221.945 299.714 221.625 299.714 221.249C299.26 221.249 298.925 221.122 298.71 220.868C298.496 220.609 298.388 220.333 298.388 220.041C298.388 219.704 298.508 219.42 298.747 219.191C298.986 218.957 299.265 218.839 299.582 218.839C299.992 218.839 300.346 219.018 300.644 219.374C300.942 219.726 301.091 220.209 301.091 220.824C301.091 221.361 300.974 221.867 300.739 222.34C300.505 222.819 300.185 223.227 299.78 223.563C299.379 223.9 298.889 224.105 298.308 224.179ZM299.582 214.979C299.255 214.979 298.974 214.862 298.74 214.628C298.505 214.394 298.388 214.113 298.388 213.786C298.388 213.454 298.505 213.173 298.74 212.943C298.979 212.709 299.26 212.592 299.582 212.592C299.904 212.592 300.183 212.709 300.417 212.943C300.656 213.173 300.776 213.454 300.776 213.786C300.776 214.113 300.659 214.394 300.424 214.628C300.19 214.862 299.909 214.979 299.582 214.979ZM111.013 240.342C110.559 240.103 110.224 239.868 110.009 239.639C109.799 239.409 109.643 239.175 109.541 238.936C109.438 238.691 109.387 238.413 109.387 238.101C109.387 237.822 109.433 237.458 109.526 237.009L109.709 236.174C109.807 235.72 109.855 235.383 109.855 235.164C109.855 234.866 109.738 234.614 109.504 234.409C109.274 234.199 108.798 234.094 108.076 234.094H106.94V232.952H108.09C109.428 232.952 110.29 233.169 110.676 233.604C111.066 234.033 111.262 234.517 111.262 235.054C111.262 235.347 111.223 235.659 111.145 235.991L111.013 236.577L110.888 237.214L110.8 237.595C110.766 237.781 110.749 237.959 110.749 238.13C110.749 238.579 110.9 238.965 111.203 239.287C111.511 239.609 112.05 239.771 112.822 239.771H113.474V240.906H112.822C112.06 240.906 111.523 241.067 111.21 241.389C110.903 241.707 110.749 242.102 110.749 242.576C110.749 242.747 110.766 242.915 110.8 243.081L110.888 243.469L111.013 244.106L111.145 244.692C111.223 245.029 111.262 245.342 111.262 245.63C111.262 246.172 111.066 246.655 110.676 247.08C110.29 247.51 109.428 247.725 108.09 247.725H106.94V246.589H108.076C108.798 246.589 109.274 246.484 109.504 246.274C109.738 246.069 109.855 245.815 109.855 245.513C109.855 245.298 109.807 244.963 109.709 244.509L109.526 243.674C109.433 243.225 109.387 242.861 109.387 242.583C109.387 242.271 109.438 241.995 109.541 241.755C109.643 241.511 109.799 241.274 110.009 241.045C110.224 240.815 110.559 240.581 111.013 240.342ZM92.9951 264.342C92.541 264.103 92.2065 263.868 91.9917 263.639C91.7817 263.409 91.6255 263.175 91.5229 262.936C91.4204 262.691 91.3691 262.413 91.3691 262.101C91.3691 261.822 91.4155 261.458 91.5083 261.009L91.6914 260.174C91.7891 259.72 91.8379 259.383 91.8379 259.164C91.8379 258.866 91.7207 258.614 91.4863 258.409C91.2568 258.199 90.7808 258.094 90.0581 258.094H88.9229V256.952H90.0728C91.4106 256.952 92.2725 257.169 92.6582 257.604C93.0488 258.033 93.2441 258.517 93.2441 259.054C93.2441 259.347 93.2051 259.659 93.127 259.991L92.9951 260.577L92.8706 261.214L92.7827 261.595C92.7485 261.781 92.7314 261.959 92.7314 262.13C92.7314 262.579 92.8828 262.965 93.1855 263.287C93.4932 263.609 94.0327 263.771 94.8042 263.771H95.4561V264.906H94.8042C94.0425 264.906 93.5054 265.067 93.1929 265.389C92.8853 265.707 92.7314 266.102 92.7314 266.576C92.7314 266.747 92.7485 266.915 92.7827 267.081L92.8706 267.469L92.9951 268.106L93.127 268.692C93.2051 269.029 93.2441 269.342 93.2441 269.63C93.2441 270.172 93.0488 270.655 92.6582 271.08C92.2725 271.51 91.4106 271.725 90.0728 271.725H88.9229V270.589H90.0581C90.7808 270.589 91.2568 270.484 91.4863 270.274C91.7207 270.069 91.8379 269.815 91.8379 269.513C91.8379 269.298 91.7891 268.963 91.6914 268.509L91.5083 267.674C91.4155 267.225 91.3691 266.861 91.3691 266.583C91.3691 266.271 91.4204 265.995 91.5229 265.755C91.6255 265.511 91.7817 265.274 91.9917 265.045C92.2065 264.815 92.541 264.581 92.9951 264.342ZM98.1587 256.952C99.5112 257.04 100.651 257.425 101.579 258.109C102.507 258.788 103.247 259.706 103.798 260.863C104.355 262.02 104.633 263.18 104.633 264.342C104.633 265.504 104.355 266.664 103.798 267.821C103.247 268.978 102.507 269.896 101.579 270.575C100.651 271.258 99.5112 271.642 98.1587 271.725V270.589C99.1792 270.492 100.056 270.147 100.788 269.557C101.525 268.966 102.104 268.211 102.524 267.293C102.949 266.375 103.161 265.392 103.161 264.342C103.161 263.292 102.949 262.308 102.524 261.39C102.104 260.472 101.525 259.718 100.788 259.127C100.056 258.531 99.1792 258.187 98.1587 258.094V256.952ZM109.123 272.179V271.271C109.475 271.178 109.741 271.043 109.921 270.868C110.107 270.697 110.253 270.477 110.361 270.208C110.473 269.945 110.529 269.625 110.529 269.249C110.075 269.249 109.741 269.122 109.526 268.868C109.311 268.609 109.204 268.333 109.204 268.041C109.204 267.704 109.323 267.42 109.562 267.191C109.802 266.957 110.08 266.839 110.397 266.839C110.808 266.839 111.162 267.018 111.459 267.374C111.757 267.726 111.906 268.209 111.906 268.824C111.906 269.361 111.789 269.867 111.555 270.34C111.32 270.819 111 271.227 110.595 271.563C110.195 271.9 109.704 272.105 109.123 272.179ZM110.397 262.979C110.07 262.979 109.79 262.862 109.555 262.628C109.321 262.394 109.204 262.113 109.204 261.786C109.204 261.454 109.321 261.173 109.555 260.943C109.794 260.709 110.075 260.592 110.397 260.592C110.72 260.592 110.998 260.709 111.232 260.943C111.472 261.173 111.591 261.454 111.591 261.786C111.591 262.113 111.474 262.394 111.24 262.628C111.005 262.862 110.725 262.979 110.397 262.979Z" fill="white"/>
<path d="M113.884 140.819V149H112.521V147.206C112.082 147.879 111.594 148.385 111.057 148.722C110.52 149.059 109.982 149.227 109.445 149.227C108.967 149.227 108.527 149.1 108.127 148.846C107.731 148.587 107.456 148.25 107.299 147.835C107.143 147.416 107.065 146.6 107.065 145.389V140.819H108.427V145.558C108.427 146.344 108.464 146.864 108.537 147.118C108.615 147.367 108.754 147.572 108.955 147.733C109.16 147.894 109.379 147.975 109.614 147.975C110.092 147.975 110.605 147.75 111.152 147.301C111.704 146.847 112.16 146.275 112.521 145.587V140.819H113.884ZM116.857 149V140.819H118.22V142.606C118.645 141.932 119.13 141.429 119.677 141.097C120.229 140.76 120.842 140.592 121.516 140.592C122.009 140.592 122.502 140.667 122.995 140.819V143.771H121.684V141.903C121.455 141.864 121.274 141.844 121.142 141.844C120.634 141.844 120.136 142.044 119.648 142.445C119.16 142.845 118.684 143.446 118.22 144.247V149H116.857ZM127.368 149V138.321H124.921V137.179H128.73V147.865H131.286V149H127.368ZM137.541 149.344C137.214 149.344 136.933 149.227 136.699 148.993C136.464 148.758 136.347 148.478 136.347 148.15C136.347 147.818 136.464 147.538 136.699 147.308C136.938 147.074 137.219 146.957 137.541 146.957C137.863 146.957 138.142 147.074 138.376 147.308C138.615 147.538 138.735 147.818 138.735 148.15C138.735 148.478 138.618 148.758 138.383 148.993C138.149 149.227 137.868 149.344 137.541 149.344ZM137.541 142.979C137.214 142.979 136.933 142.862 136.699 142.628C136.464 142.394 136.347 142.113 136.347 141.786C136.347 141.454 136.464 141.173 136.699 140.943C136.938 140.709 137.219 140.592 137.541 140.592C137.863 140.592 138.142 140.709 138.376 140.943C138.615 141.173 138.735 141.454 138.735 141.786C138.735 142.113 138.618 142.394 138.383 142.628C138.149 142.862 137.868 142.979 137.541 142.979ZM112.617 171.162C112.202 171.845 111.701 172.36 111.115 172.707C110.534 173.054 110 173.227 109.511 173.227C108.828 173.227 108.212 172.932 107.666 172.341C107.124 171.75 106.853 170.854 106.853 169.653C106.853 168.706 107.033 167.861 107.395 167.119C107.756 166.372 108.239 165.783 108.845 165.354C109.45 164.919 110.2 164.702 111.093 164.702C111.352 164.702 111.743 164.729 112.265 164.782C112.343 164.792 112.46 164.804 112.617 164.819V161.179H113.986V173H112.617V171.162ZM112.617 169.543V166.035C112.133 165.908 111.684 165.844 111.269 165.844C110.429 165.844 109.729 166.169 109.167 166.818C108.61 167.468 108.332 168.352 108.332 169.47C108.332 170.28 108.483 170.893 108.786 171.308C109.094 171.718 109.443 171.923 109.833 171.923C110.258 171.923 110.727 171.708 111.24 171.279C111.752 170.849 112.211 170.271 112.617 169.543ZM121.538 171.162C121.123 171.845 120.622 172.36 120.036 172.707C119.455 173.054 118.92 173.227 118.432 173.227C117.749 173.227 117.133 172.932 116.586 172.341C116.044 171.75 115.773 170.854 115.773 169.653C115.773 168.706 115.954 167.861 116.315 167.119C116.677 166.372 117.16 165.783 117.766 165.354C118.371 164.919 119.121 164.702 120.014 164.702C120.273 164.702 120.664 164.729 121.186 164.782C121.264 164.792 121.381 164.804 121.538 164.819H122.907V170.598C122.907 171.584 123.01 172.385 123.215 173H121.794C121.687 172.551 121.601 171.938 121.538 171.162ZM121.538 169.543V166.035C121.054 165.908 120.605 165.844 120.19 165.844C119.35 165.844 118.649 166.169 118.088 166.818C117.531 167.468 117.253 168.352 117.253 169.47C117.253 170.28 117.404 170.893 117.707 171.308C118.015 171.718 118.364 171.923 118.754 171.923C119.179 171.923 119.648 171.708 120.161 171.279C120.673 170.849 121.132 170.271 121.538 169.543ZM132.011 172.67C131.372 172.939 130.908 173.098 130.62 173.146C130.332 173.2 130.053 173.227 129.785 173.227C129.213 173.227 128.691 173.117 128.217 172.897C127.744 172.678 127.385 172.353 127.141 171.923C126.901 171.494 126.782 170.83 126.782 169.931V166.635H124.738V165.5H126.782V162.204H128.144V165.5H131.784V166.635H128.144V169.909C128.144 170.568 128.222 171.035 128.378 171.308C128.535 171.577 128.742 171.774 129.001 171.901C129.265 172.028 129.575 172.092 129.931 172.092C130.59 172.092 131.284 171.884 132.011 171.469V172.67ZM139.555 171.162C139.14 171.845 138.64 172.36 138.054 172.707C137.473 173.054 136.938 173.227 136.45 173.227C135.766 173.227 135.151 172.932 134.604 172.341C134.062 171.75 133.791 170.854 133.791 169.653C133.791 168.706 133.972 167.861 134.333 167.119C134.694 166.372 135.178 165.783 135.783 165.354C136.389 164.919 137.138 164.702 138.032 164.702C138.291 164.702 138.681 164.729 139.204 164.782C139.282 164.792 139.399 164.804 139.555 164.819H140.925V170.598C140.925 171.584 141.027 172.385 141.232 173H139.812C139.704 172.551 139.619 171.938 139.555 171.162ZM139.555 169.543V166.035C139.072 165.908 138.623 165.844 138.208 165.844C137.368 165.844 136.667 166.169 136.105 166.818C135.549 167.468 135.271 168.352 135.271 169.47C135.271 170.28 135.422 170.893 135.725 171.308C136.032 171.718 136.381 171.923 136.772 171.923C137.197 171.923 137.666 171.708 138.178 171.279C138.691 170.849 139.15 170.271 139.555 169.543ZM145.81 173V162.885H142.404V161.633H150.703V162.885H147.29V173H145.81ZM155.207 172.67L151.428 164.819H152.929L155.939 170.957L158.459 164.819H159.829L156.657 172.421C155.988 174.028 155.351 175.095 154.746 175.622C154.145 176.149 153.366 176.413 152.409 176.413C151.994 176.413 151.623 176.376 151.296 176.303V175.102C151.672 175.219 152.031 175.278 152.373 175.278C152.812 175.278 153.203 175.192 153.544 175.021C153.886 174.851 154.199 174.548 154.482 174.113C154.765 173.679 154.965 173.303 155.083 172.985L155.207 172.67ZM162.465 166.657C162.885 165.974 163.386 165.458 163.967 165.112C164.548 164.765 165.083 164.592 165.571 164.592C166.254 164.592 166.87 164.887 167.417 165.478C167.963 166.069 168.237 166.965 168.237 168.166C168.237 169.113 168.054 169.96 167.688 170.708C167.326 171.45 166.843 172.038 166.237 172.473C165.632 172.902 164.882 173.117 163.989 173.117C163.735 173.117 163.344 173.09 162.817 173.037C162.739 173.027 162.622 173.015 162.465 173V176.179H161.103V164.819H162.465V166.657ZM162.465 168.276V171.784C162.958 171.911 163.413 171.975 163.828 171.975C164.653 171.975 165.346 171.652 165.908 171.008C166.474 170.358 166.757 169.472 166.757 168.349C166.757 167.534 166.604 166.921 166.296 166.511C165.988 166.101 165.639 165.896 165.249 165.896C164.824 165.896 164.355 166.11 163.842 166.54C163.334 166.97 162.875 167.548 162.465 168.276ZM177.019 172.458C175.93 172.976 174.899 173.234 173.928 173.234C173.19 173.234 172.531 173.051 171.95 172.685C171.369 172.319 170.903 171.796 170.551 171.118C170.205 170.434 170.031 169.704 170.031 168.928C170.031 168.181 170.197 167.463 170.529 166.774C170.861 166.086 171.325 165.551 171.921 165.17C172.517 164.785 173.181 164.592 173.913 164.592C174.885 164.592 175.664 164.938 176.25 165.632C176.84 166.325 177.136 167.395 177.136 168.84V169.133H171.496C171.496 169.699 171.613 170.217 171.848 170.686C172.087 171.154 172.399 171.506 172.785 171.74C173.171 171.975 173.61 172.092 174.104 172.092C174.982 172.092 175.954 171.799 177.019 171.213V172.458ZM171.577 168.115H175.656V167.917C175.656 167.248 175.493 166.716 175.166 166.32C174.838 165.925 174.401 165.727 173.854 165.727C173.303 165.727 172.824 165.93 172.419 166.335C172.019 166.735 171.738 167.329 171.577 168.115ZM182.585 173.344C182.258 173.344 181.977 173.227 181.743 172.993C181.508 172.758 181.391 172.478 181.391 172.15C181.391 171.818 181.508 171.538 181.743 171.308C181.982 171.074 182.263 170.957 182.585 170.957C182.907 170.957 183.186 171.074 183.42 171.308C183.659 171.538 183.779 171.818 183.779 172.15C183.779 172.478 183.662 172.758 183.427 172.993C183.193 173.227 182.912 173.344 182.585 173.344ZM182.585 166.979C182.258 166.979 181.977 166.862 181.743 166.628C181.508 166.394 181.391 166.113 181.391 165.786C181.391 165.454 181.508 165.173 181.743 164.943C181.982 164.709 182.263 164.592 182.585 164.592C182.907 164.592 183.186 164.709 183.42 164.943C183.659 165.173 183.779 165.454 183.779 165.786C183.779 166.113 183.662 166.394 183.427 166.628C183.193 166.862 182.912 166.979 182.585 166.979ZM107.248 196.568V195.125C107.795 195.481 108.374 195.733 108.984 195.879C109.594 196.021 110.112 196.092 110.537 196.092C111.225 196.092 111.721 195.982 112.023 195.762C112.326 195.538 112.478 195.259 112.478 194.927C112.478 194.708 112.407 194.52 112.265 194.363C112.124 194.207 111.772 194.014 111.21 193.785L110.742 193.594L109.797 193.221C108.781 192.825 108.142 192.459 107.878 192.122C107.609 191.79 107.475 191.385 107.475 190.906C107.475 190.232 107.734 189.678 108.251 189.244C108.774 188.809 109.619 188.592 110.786 188.592C111.66 188.592 112.487 188.719 113.269 188.973V190.21C112.37 189.888 111.525 189.727 110.734 189.727C110.158 189.727 109.707 189.83 109.379 190.035C109.057 190.235 108.896 190.486 108.896 190.789C108.896 191.082 109.038 191.316 109.321 191.492C109.599 191.668 110.053 191.871 110.683 192.1L111.606 192.437C112.451 192.745 113.044 193.079 113.386 193.44C113.728 193.802 113.898 194.253 113.898 194.795C113.898 195.503 113.625 196.087 113.078 196.546C112.536 197 111.667 197.227 110.471 197.227C109.426 197.227 108.352 197.007 107.248 196.568ZM122.893 188.819V197H121.53V195.206C121.091 195.879 120.603 196.385 120.065 196.722C119.528 197.059 118.991 197.227 118.454 197.227C117.976 197.227 117.536 197.1 117.136 196.846C116.74 196.587 116.464 196.25 116.308 195.835C116.152 195.416 116.074 194.6 116.074 193.389V188.819H117.436V193.558C117.436 194.344 117.473 194.864 117.546 195.118C117.624 195.367 117.763 195.572 117.963 195.733C118.168 195.894 118.388 195.975 118.623 195.975C119.101 195.975 119.614 195.75 120.161 195.301C120.712 194.847 121.169 194.275 121.53 193.587V188.819H122.893ZM132.055 196.766C131.142 197.073 130.273 197.227 129.448 197.227C128.627 197.227 127.897 197.039 127.258 196.663C126.623 196.282 126.127 195.77 125.771 195.125C125.415 194.476 125.236 193.738 125.236 192.913C125.236 191.673 125.639 190.643 126.445 189.822C127.255 189.002 128.232 188.592 129.375 188.592C130.219 188.592 131.113 188.75 132.055 189.068V190.379C131.103 189.944 130.251 189.727 129.499 189.727C129.001 189.727 128.532 189.852 128.093 190.101C127.653 190.345 127.314 190.728 127.075 191.25C126.835 191.773 126.716 192.31 126.716 192.862C126.716 193.599 126.945 194.302 127.404 194.971C127.868 195.64 128.593 195.975 129.58 195.975C129.877 195.975 130.17 195.955 130.458 195.916C130.747 195.872 131.279 195.718 132.055 195.455V196.766ZM141.064 196.766C140.151 197.073 139.282 197.227 138.457 197.227C137.636 197.227 136.906 197.039 136.267 196.663C135.632 196.282 135.136 195.77 134.78 195.125C134.423 194.476 134.245 193.738 134.245 192.913C134.245 191.673 134.648 190.643 135.454 189.822C136.264 189.002 137.241 188.592 138.383 188.592C139.228 188.592 140.122 188.75 141.064 189.068V190.379C140.112 189.944 139.26 189.727 138.508 189.727C138.01 189.727 137.541 189.852 137.102 190.101C136.662 190.345 136.323 190.728 136.083 191.25C135.844 191.773 135.725 192.31 135.725 192.862C135.725 193.599 135.954 194.302 136.413 194.971C136.877 195.64 137.602 195.975 138.588 195.975C138.886 195.975 139.179 195.955 139.467 195.916C139.755 195.872 140.288 195.718 141.064 195.455V196.766ZM149.992 196.458C148.903 196.976 147.873 197.234 146.901 197.234C146.164 197.234 145.505 197.051 144.924 196.685C144.343 196.319 143.876 195.796 143.525 195.118C143.178 194.434 143.005 193.704 143.005 192.928C143.005 192.181 143.171 191.463 143.503 190.774C143.835 190.086 144.299 189.551 144.895 189.17C145.49 188.785 146.154 188.592 146.887 188.592C147.858 188.592 148.637 188.938 149.223 189.632C149.814 190.325 150.109 191.395 150.109 192.84V193.133H144.47C144.47 193.699 144.587 194.217 144.821 194.686C145.061 195.154 145.373 195.506 145.759 195.74C146.145 195.975 146.584 196.092 147.077 196.092C147.956 196.092 148.928 195.799 149.992 195.213V196.458ZM144.55 192.115H148.63V191.917C148.63 191.248 148.466 190.716 148.139 190.32C147.812 189.925 147.375 189.727 146.828 189.727C146.276 189.727 145.798 189.93 145.393 190.335C144.992 190.735 144.711 191.329 144.55 192.115ZM152.292 196.568V195.125C152.839 195.481 153.417 195.733 154.028 195.879C154.638 196.021 155.156 196.092 155.581 196.092C156.269 196.092 156.765 195.982 157.067 195.762C157.37 195.538 157.521 195.259 157.521 194.927C157.521 194.708 157.451 194.52 157.309 194.363C157.167 194.207 156.816 194.014 156.254 193.785L155.786 193.594L154.841 193.221C153.825 192.825 153.186 192.459 152.922 192.122C152.653 191.79 152.519 191.385 152.519 190.906C152.519 190.232 152.778 189.678 153.295 189.244C153.818 188.809 154.663 188.592 155.83 188.592C156.704 188.592 157.531 188.719 158.312 188.973V190.21C157.414 189.888 156.569 189.727 155.778 189.727C155.202 189.727 154.75 189.83 154.423 190.035C154.101 190.235 153.94 190.486 153.94 190.789C153.94 191.082 154.082 191.316 154.365 191.492C154.643 191.668 155.097 191.871 155.727 192.1L156.65 192.437C157.495 192.745 158.088 193.079 158.43 193.44C158.771 193.802 158.942 194.253 158.942 194.795C158.942 195.503 158.669 196.087 158.122 196.546C157.58 197 156.711 197.227 155.515 197.227C154.47 197.227 153.396 197.007 152.292 196.568ZM161.301 196.568V195.125C161.848 195.481 162.426 195.733 163.037 195.879C163.647 196.021 164.165 196.092 164.589 196.092C165.278 196.092 165.773 195.982 166.076 195.762C166.379 195.538 166.53 195.259 166.53 194.927C166.53 194.708 166.459 194.52 166.318 194.363C166.176 194.207 165.825 194.014 165.263 193.785L164.794 193.594L163.85 193.221C162.834 192.825 162.194 192.459 161.931 192.122C161.662 191.79 161.528 191.385 161.528 190.906C161.528 190.232 161.787 189.678 162.304 189.244C162.827 188.809 163.671 188.592 164.838 188.592C165.712 188.592 166.54 188.719 167.321 188.973V190.21C166.423 189.888 165.578 189.727 164.787 189.727C164.211 189.727 163.759 189.83 163.432 190.035C163.11 190.235 162.949 190.486 162.949 190.789C162.949 191.082 163.09 191.316 163.374 191.492C163.652 191.668 164.106 191.871 164.736 192.1L165.659 192.437C166.503 192.745 167.097 193.079 167.438 193.44C167.78 193.802 167.951 194.253 167.951 194.795C167.951 195.503 167.678 196.087 167.131 196.546C166.589 197 165.72 197.227 164.523 197.227C163.479 197.227 162.404 197.007 161.301 196.568ZM173.576 197.344C173.249 197.344 172.968 197.227 172.734 196.993C172.5 196.758 172.382 196.478 172.382 196.15C172.382 195.818 172.5 195.538 172.734 195.308C172.973 195.074 173.254 194.957 173.576 194.957C173.898 194.957 174.177 195.074 174.411 195.308C174.65 195.538 174.77 195.818 174.77 196.15C174.77 196.478 174.653 196.758 174.418 196.993C174.184 197.227 173.903 197.344 173.576 197.344ZM173.576 190.979C173.249 190.979 172.968 190.862 172.734 190.628C172.5 190.394 172.382 190.113 172.382 189.786C172.382 189.454 172.5 189.173 172.734 188.943C172.973 188.709 173.254 188.592 173.576 188.592C173.898 188.592 174.177 188.709 174.411 188.943C174.65 189.173 174.77 189.454 174.77 189.786C174.77 190.113 174.653 190.394 174.418 190.628C174.184 190.862 173.903 190.979 173.576 190.979Z" fill="#00C2FF"/>
<path d="M156.064 141.727H155.083L154.313 137.179H156.811L156.064 141.727ZM161.206 149V137.179H162.568V142.606C162.958 141.976 163.43 141.483 163.981 141.126C164.533 140.77 165.085 140.592 165.637 140.592C166.101 140.592 166.523 140.711 166.904 140.951C167.29 141.185 167.558 141.471 167.709 141.808C167.832 142.066 167.915 142.342 167.958 142.635C168.002 142.923 168.024 143.521 168.024 144.43V149H166.662V144.261C166.662 143.475 166.623 142.958 166.545 142.708C166.472 142.455 166.333 142.247 166.127 142.086C165.927 141.925 165.708 141.844 165.468 141.844C164.99 141.844 164.475 142.071 163.923 142.525C163.376 142.979 162.924 143.548 162.568 144.232V149H161.206ZM177.055 148.67C176.416 148.939 175.952 149.098 175.664 149.146C175.375 149.2 175.097 149.227 174.829 149.227C174.257 149.227 173.735 149.117 173.261 148.897C172.788 148.678 172.429 148.353 172.185 147.923C171.945 147.494 171.826 146.83 171.826 145.931V142.635H169.782V141.5H171.826V138.204H173.188V141.5H176.828V142.635H173.188V145.909C173.188 146.568 173.266 147.035 173.422 147.308C173.579 147.577 173.786 147.774 174.045 147.901C174.309 148.028 174.619 148.092 174.975 148.092C175.634 148.092 176.328 147.884 177.055 147.469V148.67ZM186.064 148.67C185.424 148.939 184.96 149.098 184.672 149.146C184.384 149.2 184.106 149.227 183.837 149.227C183.266 149.227 182.744 149.117 182.27 148.897C181.796 148.678 181.438 148.353 181.193 147.923C180.954 147.494 180.834 146.83 180.834 145.931V142.635H178.791V141.5H180.834V138.204H182.197V141.5H185.837V142.635H182.197V145.909C182.197 146.568 182.275 147.035 182.431 147.308C182.587 147.577 182.795 147.774 183.054 147.901C183.317 148.028 183.627 148.092 183.984 148.092C184.643 148.092 185.336 147.884 186.064 147.469V148.67ZM189.492 142.657C189.912 141.974 190.412 141.458 190.993 141.112C191.574 140.765 192.109 140.592 192.597 140.592C193.281 140.592 193.896 140.887 194.443 141.478C194.99 142.069 195.263 142.965 195.263 144.166C195.263 145.113 195.08 145.96 194.714 146.708C194.353 147.45 193.869 148.038 193.264 148.473C192.658 148.902 191.909 149.117 191.015 149.117C190.761 149.117 190.371 149.09 189.843 149.037C189.765 149.027 189.648 149.015 189.492 149V152.179H188.129V140.819H189.492V142.657ZM189.492 144.276V147.784C189.985 147.911 190.439 147.975 190.854 147.975C191.679 147.975 192.373 147.652 192.934 147.008C193.5 146.358 193.784 145.472 193.784 144.349C193.784 143.534 193.63 142.921 193.322 142.511C193.015 142.101 192.666 141.896 192.275 141.896C191.85 141.896 191.381 142.11 190.869 142.54C190.361 142.97 189.902 143.548 189.492 144.276ZM197.336 148.568V147.125C197.883 147.481 198.461 147.733 199.072 147.879C199.682 148.021 200.2 148.092 200.625 148.092C201.313 148.092 201.809 147.982 202.111 147.762C202.414 147.538 202.565 147.259 202.565 146.927C202.565 146.708 202.495 146.52 202.353 146.363C202.211 146.207 201.86 146.014 201.298 145.785L200.83 145.594L199.885 145.221C198.869 144.825 198.229 144.459 197.966 144.122C197.697 143.79 197.563 143.385 197.563 142.906C197.563 142.232 197.822 141.678 198.339 141.244C198.862 140.809 199.707 140.592 200.874 140.592C201.748 140.592 202.575 140.719 203.356 140.973V142.21C202.458 141.888 201.613 141.727 200.822 141.727C200.246 141.727 199.794 141.83 199.467 142.035C199.145 142.235 198.984 142.486 198.984 142.789C198.984 143.082 199.125 143.316 199.409 143.492C199.687 143.668 200.141 143.871 200.771 144.1L201.694 144.437C202.539 144.745 203.132 145.079 203.474 145.44C203.815 145.802 203.986 146.253 203.986 146.795C203.986 147.503 203.713 148.087 203.166 148.546C202.624 149 201.755 149.227 200.559 149.227C199.514 149.227 198.439 149.007 197.336 148.568ZM209.611 149.344C209.284 149.344 209.003 149.227 208.769 148.993C208.535 148.758 208.417 148.478 208.417 148.15C208.417 147.818 208.535 147.538 208.769 147.308C209.008 147.074 209.289 146.957 209.611 146.957C209.934 146.957 210.212 147.074 210.446 147.308C210.686 147.538 210.805 147.818 210.805 148.15C210.805 148.478 210.688 148.758 210.454 148.993C210.219 149.227 209.938 149.344 209.611 149.344ZM209.611 142.979C209.284 142.979 209.003 142.862 208.769 142.628C208.535 142.394 208.417 142.113 208.417 141.786C208.417 141.454 208.535 141.173 208.769 140.943C209.008 140.709 209.289 140.592 209.611 140.592C209.934 140.592 210.212 140.709 210.446 140.943C210.686 141.173 210.805 141.454 210.805 141.786C210.805 142.113 210.688 142.394 210.454 142.628C210.219 142.862 209.938 142.979 209.611 142.979ZM215.705 149.344H214.365L221.594 137.296H222.89L215.705 149.344ZM224.714 149.344H223.374L230.603 137.296H231.899L224.714 149.344ZM234.536 142.657C234.956 141.974 235.456 141.458 236.037 141.112C236.618 140.765 237.153 140.592 237.641 140.592C238.325 140.592 238.94 140.887 239.487 141.478C240.034 142.069 240.307 142.965 240.307 144.166C240.307 145.113 240.124 145.96 239.758 146.708C239.396 147.45 238.913 148.038 238.308 148.473C237.702 148.902 236.953 149.117 236.059 149.117C235.805 149.117 235.415 149.09 234.887 149.037C234.809 149.027 234.692 149.015 234.536 149H233.173V137.179H234.536V142.657ZM234.536 144.276V147.784C235.029 147.911 235.483 147.975 235.898 147.975C236.723 147.975 237.417 147.652 237.978 147.008C238.544 146.358 238.828 145.472 238.828 144.349C238.828 143.534 238.674 142.921 238.366 142.511C238.059 142.101 237.709 141.896 237.319 141.896C236.894 141.896 236.425 142.11 235.913 142.54C235.405 142.97 234.946 143.548 234.536 144.276ZM247.661 147.162C247.246 147.845 246.745 148.36 246.159 148.707C245.578 149.054 245.043 149.227 244.555 149.227C243.872 149.227 243.256 148.932 242.709 148.341C242.167 147.75 241.896 146.854 241.896 145.653C241.896 144.706 242.077 143.861 242.438 143.119C242.8 142.372 243.283 141.783 243.889 141.354C244.494 140.919 245.244 140.702 246.137 140.702C246.396 140.702 246.787 140.729 247.309 140.782C247.387 140.792 247.504 140.804 247.661 140.819H249.03V146.598C249.03 147.584 249.133 148.385 249.338 149H247.917C247.81 148.551 247.724 147.938 247.661 147.162ZM247.661 145.543V142.035C247.177 141.908 246.728 141.844 246.313 141.844C245.473 141.844 244.772 142.169 244.211 142.818C243.654 143.468 243.376 144.352 243.376 145.47C243.376 146.28 243.527 146.893 243.83 147.308C244.138 147.718 244.487 147.923 244.877 147.923C245.302 147.923 245.771 147.708 246.284 147.279C246.796 146.849 247.255 146.271 247.661 145.543ZM253.952 149L250.4 140.819H251.894L254.699 147.293L257.563 140.819H258.925L255.344 149H253.952ZM265.678 147.162C265.263 147.845 264.763 148.36 264.177 148.707C263.596 149.054 263.061 149.227 262.573 149.227C261.889 149.227 261.274 148.932 260.727 148.341C260.185 147.75 259.914 146.854 259.914 145.653C259.914 144.706 260.095 143.861 260.456 143.119C260.817 142.372 261.301 141.783 261.906 141.354C262.512 140.919 263.261 140.702 264.155 140.702C264.414 140.702 264.804 140.729 265.327 140.782C265.405 140.792 265.522 140.804 265.678 140.819H267.048V146.598C267.048 147.584 267.15 148.385 267.355 149H265.935C265.827 148.551 265.742 147.938 265.678 147.162ZM265.678 145.543V142.035C265.195 141.908 264.746 141.844 264.331 141.844C263.491 141.844 262.79 142.169 262.229 142.818C261.672 143.468 261.394 144.352 261.394 145.47C261.394 146.28 261.545 146.893 261.848 147.308C262.155 147.718 262.504 147.923 262.895 147.923C263.32 147.923 263.789 147.708 264.301 147.279C264.814 146.849 265.273 146.271 265.678 145.543ZM276.152 148.67C275.512 148.939 275.048 149.098 274.76 149.146C274.472 149.2 274.194 149.227 273.925 149.227C273.354 149.227 272.832 149.117 272.358 148.897C271.884 148.678 271.525 148.353 271.281 147.923C271.042 147.494 270.922 146.83 270.922 145.931V142.635H268.879V141.5H270.922V138.204H272.285V141.5H275.925V142.635H272.285V145.909C272.285 146.568 272.363 147.035 272.519 147.308C272.675 147.577 272.883 147.774 273.142 147.901C273.405 148.028 273.715 148.092 274.072 148.092C274.731 148.092 275.424 147.884 276.152 147.469V148.67ZM283.696 147.162C283.281 147.845 282.78 148.36 282.194 148.707C281.613 149.054 281.079 149.227 280.59 149.227C279.907 149.227 279.292 148.932 278.745 148.341C278.203 147.75 277.932 146.854 277.932 145.653C277.932 144.706 278.112 143.861 278.474 143.119C278.835 142.372 279.318 141.783 279.924 141.354C280.529 140.919 281.279 140.702 282.172 140.702C282.431 140.702 282.822 140.729 283.344 140.782C283.422 140.792 283.54 140.804 283.696 140.819H285.065V146.598C285.065 147.584 285.168 148.385 285.373 149H283.952C283.845 148.551 283.759 147.938 283.696 147.162ZM283.696 145.543V142.035C283.212 141.908 282.763 141.844 282.348 141.844C281.508 141.844 280.808 142.169 280.246 142.818C279.689 143.468 279.411 144.352 279.411 145.47C279.411 146.28 279.562 146.893 279.865 147.308C280.173 147.718 280.522 147.923 280.913 147.923C281.337 147.923 281.806 147.708 282.319 147.279C282.832 146.849 283.291 146.271 283.696 145.543ZM288.024 149V140.819H289.387V142.606C289.812 141.932 290.297 141.429 290.844 141.097C291.396 140.76 292.009 140.592 292.683 140.592C293.176 140.592 293.669 140.667 294.162 140.819V143.771H292.851V141.903C292.622 141.864 292.441 141.844 292.309 141.844C291.801 141.844 291.303 142.044 290.815 142.445C290.327 142.845 289.851 143.446 289.387 144.247V149H288.024ZM296.433 148.568V147.125C296.979 147.481 297.558 147.733 298.168 147.879C298.779 148.021 299.296 148.092 299.721 148.092C300.41 148.092 300.905 147.982 301.208 147.762C301.511 147.538 301.662 147.259 301.662 146.927C301.662 146.708 301.591 146.52 301.45 146.363C301.308 146.207 300.957 146.014 300.395 145.785L299.926 145.594L298.981 145.221C297.966 144.825 297.326 144.459 297.062 144.122C296.794 143.79 296.66 143.385 296.66 142.906C296.66 142.232 296.918 141.678 297.436 141.244C297.958 140.809 298.803 140.592 299.97 140.592C300.844 140.592 301.672 140.719 302.453 140.973V142.21C301.555 141.888 300.71 141.727 299.919 141.727C299.343 141.727 298.891 141.83 298.564 142.035C298.242 142.235 298.081 142.486 298.081 142.789C298.081 143.082 298.222 143.316 298.505 143.492C298.784 143.668 299.238 143.871 299.868 144.1L300.791 144.437C301.635 144.745 302.229 145.079 302.57 145.44C302.912 145.802 303.083 146.253 303.083 146.795C303.083 147.503 302.81 148.087 302.263 148.546C301.721 149 300.852 149.227 299.655 149.227C298.61 149.227 297.536 149.007 296.433 148.568ZM308.708 149.344C308.381 149.344 308.1 149.227 307.866 148.993C307.631 148.758 307.514 148.478 307.514 148.15C307.514 147.818 307.631 147.538 307.866 147.308C308.105 147.074 308.386 146.957 308.708 146.957C309.03 146.957 309.309 147.074 309.543 147.308C309.782 147.538 309.902 147.818 309.902 148.15C309.902 148.478 309.785 148.758 309.55 148.993C309.316 149.227 309.035 149.344 308.708 149.344ZM314.355 149V140.819H315.717V142.606C316.108 141.976 316.579 141.483 317.131 141.126C317.683 140.77 318.234 140.592 318.786 140.592C319.27 140.592 319.709 140.721 320.104 140.98C320.5 141.234 320.776 141.568 320.932 141.983C321.093 142.398 321.174 143.214 321.174 144.43V149H319.812V144.261C319.812 143.475 319.772 142.958 319.694 142.708C319.621 142.455 319.482 142.247 319.277 142.086C319.077 141.925 318.857 141.844 318.618 141.844C318.139 141.844 317.624 142.071 317.072 142.525C316.525 142.979 316.074 143.548 315.717 144.232V149H314.355ZM328.828 147.162C328.413 147.845 327.912 148.36 327.326 148.707C326.745 149.054 326.21 149.227 325.722 149.227C325.039 149.227 324.423 148.932 323.876 148.341C323.334 147.75 323.063 146.854 323.063 145.653C323.063 144.706 323.244 143.861 323.605 143.119C323.967 142.372 324.45 141.783 325.056 141.354C325.661 140.919 326.411 140.702 327.304 140.702C327.563 140.702 327.954 140.729 328.476 140.782C328.554 140.792 328.671 140.804 328.828 140.819H330.197V146.605C330.197 147.982 330.178 148.822 330.139 149.125C330.104 149.432 330.046 149.742 329.963 150.055C329.768 150.782 329.321 151.356 328.623 151.776C327.929 152.196 327.089 152.406 326.103 152.406C325.112 152.406 324.108 152.152 323.093 151.644V150.267C323.479 150.531 323.952 150.763 324.514 150.963C325.08 151.168 325.627 151.271 326.154 151.271C326.569 151.271 326.962 151.205 327.333 151.073C327.705 150.941 328.005 150.75 328.234 150.501C328.464 150.252 328.62 149.962 328.703 149.63C328.786 149.303 328.828 148.866 328.828 148.319V147.162ZM328.828 145.543V142.035C328.344 141.908 327.895 141.844 327.48 141.844C326.64 141.844 325.939 142.169 325.378 142.818C324.821 143.468 324.543 144.352 324.543 145.47C324.543 146.28 324.694 146.893 324.997 147.308C325.305 147.718 325.654 147.923 326.044 147.923C326.469 147.923 326.938 147.708 327.451 147.279C327.963 146.849 328.422 146.271 328.828 145.543ZM332.819 149.344H331.479L338.708 137.296H340.004L332.819 149.344ZM346.757 147.162C346.342 147.845 345.842 148.36 345.256 148.707C344.675 149.054 344.14 149.227 343.652 149.227C342.968 149.227 342.353 148.932 341.806 148.341C341.264 147.75 340.993 146.854 340.993 145.653C340.993 144.706 341.174 143.861 341.535 143.119C341.896 142.372 342.38 141.783 342.985 141.354C343.591 140.919 344.34 140.702 345.234 140.702C345.493 140.702 345.883 140.729 346.406 140.782C346.484 140.792 346.601 140.804 346.757 140.819H348.127V146.598C348.127 147.584 348.229 148.385 348.435 149H347.014C346.906 148.551 346.821 147.938 346.757 147.162ZM346.757 145.543V142.035C346.274 141.908 345.825 141.844 345.41 141.844C344.57 141.844 343.869 142.169 343.308 142.818C342.751 143.468 342.473 144.352 342.473 145.47C342.473 146.28 342.624 146.893 342.927 147.308C343.234 147.718 343.583 147.923 343.974 147.923C344.399 147.923 344.868 147.708 345.38 147.279C345.893 146.849 346.352 146.271 346.757 145.543ZM351.65 142.657C352.07 141.974 352.57 141.458 353.151 141.112C353.732 140.765 354.267 140.592 354.755 140.592C355.439 140.592 356.054 140.887 356.601 141.478C357.148 142.069 357.421 142.965 357.421 144.166C357.421 145.113 357.238 145.96 356.872 146.708C356.511 147.45 356.027 148.038 355.422 148.473C354.816 148.902 354.067 149.117 353.173 149.117C352.919 149.117 352.529 149.09 352.001 149.037C351.923 149.027 351.806 149.015 351.65 149V152.179H350.288V140.819H351.65V142.657ZM351.65 144.276V147.784C352.143 147.911 352.597 147.975 353.012 147.975C353.837 147.975 354.531 147.652 355.092 147.008C355.659 146.358 355.942 145.472 355.942 144.349C355.942 143.534 355.788 142.921 355.48 142.511C355.173 142.101 354.824 141.896 354.433 141.896C354.008 141.896 353.54 142.11 353.027 142.54C352.519 142.97 352.06 143.548 351.65 144.276ZM361.691 149V141.954H359.421V140.819H363.054V147.865H365.332V149H361.691ZM361.464 137.867C361.464 137.56 361.569 137.33 361.779 137.179C361.989 137.027 362.187 136.952 362.373 136.952C362.563 136.952 362.763 137.027 362.973 137.179C363.183 137.33 363.288 137.56 363.288 137.867C363.288 138.17 363.183 138.397 362.973 138.548C362.763 138.7 362.563 138.775 362.373 138.775C362.187 138.775 361.989 138.7 361.779 138.548C361.569 138.397 361.464 138.17 361.464 137.867ZM368.854 149.344H367.514L374.743 137.296H376.04L368.854 149.344ZM384.147 140.819V149H382.785V147.206C382.346 147.879 381.857 148.385 381.32 148.722C380.783 149.059 380.246 149.227 379.709 149.227C379.23 149.227 378.791 149.1 378.391 148.846C377.995 148.587 377.719 148.25 377.563 147.835C377.407 147.416 377.329 146.6 377.329 145.389V140.819H378.691V145.558C378.691 146.344 378.728 146.864 378.801 147.118C378.879 147.367 379.018 147.572 379.218 147.733C379.423 147.894 379.643 147.975 379.877 147.975C380.356 147.975 380.869 147.75 381.416 147.301C381.967 146.847 382.424 146.275 382.785 145.587V140.819H384.147ZM386.521 148.568V147.125C387.067 147.481 387.646 147.733 388.256 147.879C388.867 148.021 389.384 148.092 389.809 148.092C390.498 148.092 390.993 147.982 391.296 147.762C391.599 147.538 391.75 147.259 391.75 146.927C391.75 146.708 391.679 146.52 391.538 146.363C391.396 146.207 391.044 146.014 390.483 145.785L390.014 145.594L389.069 145.221C388.054 144.825 387.414 144.459 387.15 144.122C386.882 143.79 386.748 143.385 386.748 142.906C386.748 142.232 387.006 141.678 387.524 141.244C388.046 140.809 388.891 140.592 390.058 140.592C390.932 140.592 391.76 140.719 392.541 140.973V142.21C391.643 141.888 390.798 141.727 390.007 141.727C389.431 141.727 388.979 141.83 388.652 142.035C388.33 142.235 388.168 142.486 388.168 142.789C388.168 143.082 388.31 143.316 388.593 143.492C388.872 143.668 389.326 143.871 389.956 144.1L390.878 144.437C391.723 144.745 392.316 145.079 392.658 145.44C393 145.802 393.171 146.253 393.171 146.795C393.171 147.503 392.897 148.087 392.351 148.546C391.809 149 390.939 149.227 389.743 149.227C388.698 149.227 387.624 149.007 386.521 148.568ZM402.238 148.458C401.149 148.976 400.119 149.234 399.147 149.234C398.41 149.234 397.751 149.051 397.17 148.685C396.589 148.319 396.123 147.796 395.771 147.118C395.424 146.434 395.251 145.704 395.251 144.928C395.251 144.181 395.417 143.463 395.749 142.774C396.081 142.086 396.545 141.551 397.141 141.17C397.736 140.785 398.4 140.592 399.133 140.592C400.104 140.592 400.883 140.938 401.469 141.632C402.06 142.325 402.355 143.395 402.355 144.84V145.133H396.716C396.716 145.699 396.833 146.217 397.067 146.686C397.307 147.154 397.619 147.506 398.005 147.74C398.391 147.975 398.83 148.092 399.323 148.092C400.202 148.092 401.174 147.799 402.238 147.213V148.458ZM396.796 144.115H400.876V143.917C400.876 143.248 400.712 142.716 400.385 142.32C400.058 141.925 399.621 141.727 399.074 141.727C398.522 141.727 398.044 141.93 397.639 142.335C397.238 142.735 396.958 143.329 396.796 144.115ZM405.139 149V140.819H406.501V142.606C406.926 141.932 407.412 141.429 407.958 141.097C408.51 140.76 409.123 140.592 409.797 140.592C410.29 140.592 410.783 140.667 411.276 140.819V143.771H409.965V141.903C409.736 141.864 409.555 141.844 409.423 141.844C408.916 141.844 408.417 142.044 407.929 142.445C407.441 142.845 406.965 143.446 406.501 144.247V149H405.139ZM413.547 148.568V147.125C414.094 147.481 414.672 147.733 415.283 147.879C415.893 148.021 416.411 148.092 416.835 148.092C417.524 148.092 418.02 147.982 418.322 147.762C418.625 147.538 418.776 147.259 418.776 146.927C418.776 146.708 418.706 146.52 418.564 146.363C418.422 146.207 418.071 146.014 417.509 145.785L417.041 145.594L416.096 145.221C415.08 144.825 414.44 144.459 414.177 144.122C413.908 143.79 413.774 143.385 413.774 142.906C413.774 142.232 414.033 141.678 414.55 141.244C415.073 140.809 415.917 140.592 417.084 140.592C417.958 140.592 418.786 140.719 419.567 140.973V142.21C418.669 141.888 417.824 141.727 417.033 141.727C416.457 141.727 416.005 141.83 415.678 142.035C415.356 142.235 415.195 142.486 415.195 142.789C415.195 143.082 415.336 143.316 415.62 143.492C415.898 143.668 416.352 143.871 416.982 144.1L417.905 144.437C418.75 144.745 419.343 145.079 419.685 145.44C420.026 145.802 420.197 146.253 420.197 146.795C420.197 147.503 419.924 148.087 419.377 148.546C418.835 149 417.966 149.227 416.77 149.227C415.725 149.227 414.65 149.007 413.547 148.568ZM426.328 141.727H425.346L424.577 137.179H427.075L426.328 141.727ZM201.108 165.727H200.126L199.357 161.179H201.855L201.108 165.727ZM206.374 176.208V174.934C207.136 175.158 207.778 175.271 208.3 175.271C208.754 175.271 209.14 175.19 209.458 175.029C209.775 174.873 210.021 174.606 210.197 174.23C210.378 173.854 210.468 173.2 210.468 172.268V165.954H206.997V164.819H211.831V172.011C211.831 173.398 211.667 174.36 211.34 174.897C211.013 175.439 210.617 175.827 210.153 176.062C209.689 176.296 209.055 176.413 208.249 176.413C207.668 176.413 207.043 176.345 206.374 176.208ZM210.241 161.867C210.241 161.56 210.344 161.33 210.549 161.179C210.759 161.027 210.959 160.952 211.149 160.952C211.34 160.952 211.538 161.027 211.743 161.179C211.953 161.33 212.058 161.56 212.058 161.867C212.058 162.17 211.953 162.397 211.743 162.548C211.538 162.7 211.34 162.775 211.149 162.775C210.959 162.775 210.759 162.7 210.549 162.548C210.344 162.397 210.241 162.17 210.241 161.867ZM215.354 172.568V171.125C215.9 171.481 216.479 171.733 217.089 171.879C217.7 172.021 218.217 172.092 218.642 172.092C219.331 172.092 219.826 171.982 220.129 171.762C220.432 171.538 220.583 171.259 220.583 170.927C220.583 170.708 220.512 170.52 220.371 170.363C220.229 170.207 219.877 170.014 219.316 169.785L218.847 169.594L217.902 169.221C216.887 168.825 216.247 168.459 215.983 168.122C215.715 167.79 215.581 167.385 215.581 166.906C215.581 166.232 215.839 165.678 216.357 165.244C216.879 164.809 217.724 164.592 218.891 164.592C219.765 164.592 220.593 164.719 221.374 164.973V166.21C220.476 165.888 219.631 165.727 218.84 165.727C218.264 165.727 217.812 165.83 217.485 166.035C217.163 166.235 217.001 166.486 217.001 166.789C217.001 167.082 217.143 167.316 217.426 167.492C217.705 167.668 218.159 167.871 218.789 168.1L219.711 168.437C220.556 168.745 221.149 169.079 221.491 169.44C221.833 169.802 222.004 170.253 222.004 170.795C222.004 171.503 221.73 172.087 221.184 172.546C220.642 173 219.772 173.227 218.576 173.227C217.531 173.227 216.457 173.007 215.354 172.568ZM227.636 173.227C226.464 173.227 225.527 172.819 224.824 172.004C224.121 171.184 223.769 170.151 223.769 168.906C223.769 167.661 224.121 166.63 224.824 165.815C225.527 165 226.464 164.592 227.636 164.592C228.803 164.592 229.738 165 230.441 165.815C231.145 166.63 231.496 167.661 231.496 168.906C231.496 170.151 231.145 171.184 230.441 172.004C229.738 172.819 228.803 173.227 227.636 173.227ZM227.636 172.092C228.364 172.092 228.942 171.809 229.372 171.242C229.802 170.676 230.017 169.897 230.017 168.906C230.017 167.919 229.802 167.143 229.372 166.577C228.942 166.01 228.364 165.727 227.636 165.727C226.904 165.727 226.323 166.01 225.893 166.577C225.463 167.143 225.249 167.919 225.249 168.906C225.249 169.897 225.463 170.676 225.893 171.242C226.323 171.809 226.904 172.092 227.636 172.092ZM233.276 173V164.819H234.638V166.606C235.029 165.976 235.5 165.483 236.052 165.126C236.604 164.77 237.155 164.592 237.707 164.592C238.19 164.592 238.63 164.721 239.025 164.98C239.421 165.234 239.697 165.568 239.853 165.983C240.014 166.398 240.095 167.214 240.095 168.43V173H238.732V168.261C238.732 167.475 238.693 166.958 238.615 166.708C238.542 166.455 238.403 166.247 238.198 166.086C237.998 165.925 237.778 165.844 237.539 165.844C237.06 165.844 236.545 166.071 235.993 166.525C235.446 166.979 234.995 167.548 234.638 168.232V173H233.276ZM246.152 165.727H245.17L244.401 161.179H246.899L246.152 165.727Z" fill="#FF008A"/>
<path d="M190.136 197V190.635H188.32V189.5H190.136V189.119C190.136 188.04 190.258 187.242 190.502 186.724C190.747 186.207 191.123 185.782 191.63 185.45C192.143 185.118 192.819 184.952 193.659 184.952C194.294 184.952 194.938 185.018 195.593 185.149V186.446C194.885 186.211 194.257 186.094 193.71 186.094C193.276 186.094 192.893 186.175 192.561 186.336C192.229 186.497 191.967 186.761 191.777 187.127C191.591 187.488 191.499 188.104 191.499 188.973V189.5H194.743V190.635H191.499V197H190.136ZM203.972 188.819V197H202.609V195.206C202.17 195.879 201.682 196.385 201.145 196.722C200.607 197.059 200.07 197.227 199.533 197.227C199.055 197.227 198.615 197.1 198.215 196.846C197.819 196.587 197.543 196.25 197.387 195.835C197.231 195.416 197.153 194.6 197.153 193.389V188.819H198.515V193.558C198.515 194.344 198.552 194.864 198.625 195.118C198.703 195.367 198.842 195.572 199.042 195.733C199.248 195.894 199.467 195.975 199.702 195.975C200.18 195.975 200.693 195.75 201.24 195.301C201.792 194.847 202.248 194.275 202.609 193.587V188.819H203.972ZM206.25 197V188.819H207.612V190.606C208.002 189.976 208.474 189.483 209.025 189.126C209.577 188.77 210.129 188.592 210.681 188.592C211.164 188.592 211.604 188.721 211.999 188.98C212.395 189.234 212.67 189.568 212.827 189.983C212.988 190.398 213.068 191.214 213.068 192.43V197H211.706V192.261C211.706 191.475 211.667 190.958 211.589 190.708C211.516 190.455 211.376 190.247 211.171 190.086C210.971 189.925 210.751 189.844 210.512 189.844C210.034 189.844 209.519 190.071 208.967 190.525C208.42 190.979 207.968 191.548 207.612 192.232V197H206.25ZM222.143 196.766C221.23 197.073 220.361 197.227 219.536 197.227C218.715 197.227 217.985 197.039 217.346 196.663C216.711 196.282 216.215 195.77 215.859 195.125C215.502 194.476 215.324 193.738 215.324 192.913C215.324 191.673 215.727 190.643 216.533 189.822C217.343 189.002 218.32 188.592 219.462 188.592C220.307 188.592 221.201 188.75 222.143 189.068V190.379C221.191 189.944 220.339 189.727 219.587 189.727C219.089 189.727 218.62 189.852 218.181 190.101C217.741 190.345 217.402 190.728 217.163 191.25C216.923 191.773 216.804 192.31 216.804 192.862C216.804 193.599 217.033 194.302 217.492 194.971C217.956 195.64 218.681 195.975 219.667 195.975C219.965 195.975 220.258 195.955 220.546 195.916C220.834 195.872 221.367 195.718 222.143 195.455V196.766ZM231.108 196.67C230.468 196.939 230.004 197.098 229.716 197.146C229.428 197.2 229.15 197.227 228.881 197.227C228.31 197.227 227.788 197.117 227.314 196.897C226.84 196.678 226.481 196.353 226.237 195.923C225.998 195.494 225.878 194.83 225.878 193.931V190.635H223.835V189.5H225.878V186.204H227.241V189.5H230.881V190.635H227.241V193.909C227.241 194.568 227.319 195.035 227.475 195.308C227.631 195.577 227.839 195.774 228.098 195.901C228.361 196.028 228.671 196.092 229.028 196.092C229.687 196.092 230.38 195.884 231.108 195.469V196.67ZM235.568 197V189.954H233.298V188.819H236.931V195.865H239.208V197H235.568ZM235.341 185.867C235.341 185.56 235.446 185.33 235.656 185.179C235.866 185.027 236.064 184.952 236.25 184.952C236.44 184.952 236.64 185.027 236.85 185.179C237.06 185.33 237.165 185.56 237.165 185.867C237.165 186.17 237.06 186.397 236.85 186.548C236.64 186.7 236.44 186.775 236.25 186.775C236.064 186.775 235.866 186.7 235.656 186.548C235.446 186.397 235.341 186.17 235.341 185.867ZM245.654 197.227C244.482 197.227 243.544 196.819 242.841 196.004C242.138 195.184 241.787 194.151 241.787 192.906C241.787 191.661 242.138 190.63 242.841 189.815C243.544 189 244.482 188.592 245.654 188.592C246.821 188.592 247.756 189 248.459 189.815C249.162 190.63 249.514 191.661 249.514 192.906C249.514 194.151 249.162 195.184 248.459 196.004C247.756 196.819 246.821 197.227 245.654 197.227ZM245.654 196.092C246.381 196.092 246.96 195.809 247.39 195.242C247.819 194.676 248.034 193.897 248.034 192.906C248.034 191.919 247.819 191.143 247.39 190.577C246.96 190.01 246.381 189.727 245.654 189.727C244.921 189.727 244.34 190.01 243.911 190.577C243.481 191.143 243.266 191.919 243.266 192.906C243.266 193.897 243.481 194.676 243.911 195.242C244.34 195.809 244.921 196.092 245.654 196.092ZM251.293 197V188.819H252.656V190.606C253.046 189.976 253.518 189.483 254.069 189.126C254.621 188.77 255.173 188.592 255.725 188.592C256.208 188.592 256.647 188.721 257.043 188.98C257.438 189.234 257.714 189.568 257.871 189.983C258.032 190.398 258.112 191.214 258.112 192.43V197H256.75V192.261C256.75 191.475 256.711 190.958 256.633 190.708C256.56 190.455 256.42 190.247 256.215 190.086C256.015 189.925 255.795 189.844 255.556 189.844C255.078 189.844 254.562 190.071 254.011 190.525C253.464 190.979 253.012 191.548 252.656 192.232V197H251.293Z" fill="#FF7A00"/>
<path d="M150.073 220.766C149.16 221.073 148.291 221.227 147.465 221.227C146.645 221.227 145.915 221.039 145.275 220.663C144.641 220.282 144.145 219.77 143.789 219.125C143.432 218.476 143.254 217.738 143.254 216.913C143.254 215.673 143.657 214.643 144.462 213.822C145.273 213.002 146.25 212.592 147.392 212.592C148.237 212.592 149.13 212.75 150.073 213.068V214.379C149.121 213.944 148.269 213.727 147.517 213.727C147.019 213.727 146.55 213.852 146.11 214.101C145.671 214.345 145.332 214.728 145.092 215.25C144.853 215.773 144.733 216.31 144.733 216.862C144.733 217.599 144.963 218.302 145.422 218.971C145.886 219.64 146.611 219.975 147.597 219.975C147.895 219.975 148.188 219.955 148.476 219.916C148.764 219.872 149.296 219.718 150.073 219.455V220.766ZM155.566 221.227C154.394 221.227 153.457 220.819 152.753 220.004C152.05 219.184 151.699 218.151 151.699 216.906C151.699 215.661 152.05 214.63 152.753 213.815C153.457 213 154.394 212.592 155.566 212.592C156.733 212.592 157.668 213 158.371 213.815C159.074 214.63 159.426 215.661 159.426 216.906C159.426 218.151 159.074 219.184 158.371 220.004C157.668 220.819 156.733 221.227 155.566 221.227ZM155.566 220.092C156.293 220.092 156.872 219.809 157.302 219.242C157.731 218.676 157.946 217.897 157.946 216.906C157.946 215.919 157.731 215.143 157.302 214.577C156.872 214.01 156.293 213.727 155.566 213.727C154.833 213.727 154.252 214.01 153.823 214.577C153.393 215.143 153.178 215.919 153.178 216.906C153.178 217.897 153.393 218.676 153.823 219.242C154.252 219.809 154.833 220.092 155.566 220.092ZM161.206 221V212.819H162.568V214.606C162.958 213.976 163.43 213.483 163.981 213.126C164.533 212.77 165.085 212.592 165.637 212.592C166.12 212.592 166.56 212.721 166.955 212.98C167.351 213.234 167.626 213.568 167.783 213.983C167.944 214.398 168.024 215.214 168.024 216.43V221H166.662V216.261C166.662 215.475 166.623 214.958 166.545 214.708C166.472 214.455 166.333 214.247 166.127 214.086C165.927 213.925 165.708 213.844 165.468 213.844C164.99 213.844 164.475 214.071 163.923 214.525C163.376 214.979 162.924 215.548 162.568 216.232V221H161.206ZM170.31 220.568V219.125C170.856 219.481 171.435 219.733 172.045 219.879C172.656 220.021 173.173 220.092 173.598 220.092C174.287 220.092 174.782 219.982 175.085 219.762C175.388 219.538 175.539 219.259 175.539 218.927C175.539 218.708 175.468 218.52 175.327 218.363C175.185 218.207 174.833 218.014 174.272 217.785L173.803 217.594L172.858 217.221C171.843 216.825 171.203 216.459 170.939 216.122C170.671 215.79 170.537 215.385 170.537 214.906C170.537 214.232 170.795 213.678 171.313 213.244C171.835 212.809 172.68 212.592 173.847 212.592C174.721 212.592 175.549 212.719 176.33 212.973V214.21C175.432 213.888 174.587 213.727 173.796 213.727C173.22 213.727 172.768 213.83 172.441 214.035C172.119 214.235 171.958 214.486 171.958 214.789C171.958 215.082 172.099 215.316 172.382 215.492C172.661 215.668 173.115 215.871 173.745 216.1L174.667 216.437C175.512 216.745 176.105 217.079 176.447 217.44C176.789 217.802 176.96 218.253 176.96 218.795C176.96 219.503 176.687 220.087 176.14 220.546C175.598 221 174.729 221.227 173.532 221.227C172.487 221.227 171.413 221.007 170.31 220.568ZM182.592 221.227C181.42 221.227 180.483 220.819 179.78 220.004C179.077 219.184 178.725 218.151 178.725 216.906C178.725 215.661 179.077 214.63 179.78 213.815C180.483 213 181.42 212.592 182.592 212.592C183.759 212.592 184.694 213 185.397 213.815C186.101 214.63 186.452 215.661 186.452 216.906C186.452 218.151 186.101 219.184 185.397 220.004C184.694 220.819 183.759 221.227 182.592 221.227ZM182.592 220.092C183.32 220.092 183.898 219.809 184.328 219.242C184.758 218.676 184.973 217.897 184.973 216.906C184.973 215.919 184.758 215.143 184.328 214.577C183.898 214.01 183.32 213.727 182.592 213.727C181.86 213.727 181.279 214.01 180.849 214.577C180.419 215.143 180.205 215.919 180.205 216.906C180.205 217.897 180.419 218.676 180.849 219.242C181.279 219.809 181.86 220.092 182.592 220.092ZM190.429 221V210.321H187.983V209.179H191.792V219.865H194.348V221H190.429ZM204.045 220.458C202.956 220.976 201.926 221.234 200.954 221.234C200.217 221.234 199.558 221.051 198.977 220.685C198.396 220.319 197.929 219.796 197.578 219.118C197.231 218.434 197.058 217.704 197.058 216.928C197.058 216.181 197.224 215.463 197.556 214.774C197.888 214.086 198.352 213.551 198.947 213.17C199.543 212.785 200.207 212.592 200.939 212.592C201.911 212.592 202.69 212.938 203.276 213.632C203.867 214.325 204.162 215.395 204.162 216.84V217.133H198.522C198.522 217.699 198.64 218.217 198.874 218.686C199.113 219.154 199.426 219.506 199.812 219.74C200.197 219.975 200.637 220.092 201.13 220.092C202.009 220.092 202.98 219.799 204.045 219.213V220.458ZM198.603 216.115H202.683V215.917C202.683 215.248 202.519 214.716 202.192 214.32C201.865 213.925 201.428 213.727 200.881 213.727C200.329 213.727 199.851 213.93 199.445 214.335C199.045 214.735 198.764 215.329 198.603 216.115Z" fill="#FFB800"/>
<defs>
<filter id="filter0_bd" x="-16" y="-20" width="567" height="403" filterUnits="userSpaceOnUse" color-interpolation-filters="sRGB">
<feFlood flood-opacity="0" result="BackgroundImageFix"/>
<feGaussianBlur in="BackgroundImage" stdDeviation="20"/>
<feComposite in2="SourceAlpha" operator="in" result="effect1_backgroundBlur"/>
<feColorMatrix in="SourceAlpha" type="matrix" values="0 0 0 0 0 0 0 0 0 0 0 0 0 0 0 0 0 0 127 0"/>
<feMorphology radius="1" operator="erode" in="SourceAlpha" result="effect2_dropShadow"/>
<feOffset dy="4"/>
<feGaussianBlur stdDeviation="12.5"/>
<feColorMatrix type="matrix" values="0 0 0 0 0 0 0 0 0 0 0 0 0 0 0 0 0 0 0.2 0"/>
<feBlend mode="normal" in2="effect1_backgroundBlur" result="effect2_dropShadow"/>
<feBlend mode="normal" in="SourceGraphic" in2="effect2_dropShadow" result="shape"/>
</filter>
<linearGradient id="paint0_linear" x1="267.5" y1="20" x2="267.5" y2="343" gradientUnits="userSpaceOnUse">
<stop stop-color="#666666" stop-opacity="0.2"/>
<stop offset="1" stop-color="#030303" stop-opacity="0.25"/>
</linearGradient>
<linearGradient id="paint1_linear" x1="149.075" y1="7.89694" x2="517.489" y2="228.426" gradientUnits="userSpaceOnUse">
<stop stop-color="white"/>
<stop offset="0.5" stop-color="#FF8080" stop-opacity="0.65"/>
<stop offset="1" stop-color="#DB00FF" stop-opacity="0.3"/>
</linearGradient>
</defs>
</svg>
