<svg width="161" height="68" viewBox="0 0 161 68" fill="none" xmlns="http://www.w3.org/2000/svg">
<path d="M37.0004 19H38.1957V13.995H41.2447C44.0124 13.995 45.4442 12.2372 45.4442 9.94886C45.4442 7.66051 44.0124 5.90909 41.2255 5.90909H37.0004V19ZM38.1957 12.9212V6.98295H41.1935C43.2646 6.98295 44.2681 8.2294 44.2681 9.94886C44.2681 11.6619 43.2646 12.9212 41.2127 12.9212H38.1957ZM48.0138 19H49.1516V12.6591C49.1516 11.2017 50.2702 10.147 51.8043 10.147C52.1048 10.147 52.386 10.1982 52.4883 10.2109V9.05398C52.3349 9.04759 52.0728 9.0348 51.8874 9.0348C50.6538 9.0348 49.5991 9.69957 49.2028 10.6903H49.1197V9.18182H48.0138V19ZM57.9471 19.2045C60.4911 19.2045 62.2681 17.1271 62.2681 14.1357C62.2681 11.125 60.4911 9.04759 57.9471 9.04759C55.4031 9.04759 53.6261 11.125 53.6261 14.1357C53.6261 17.1271 55.4031 19.2045 57.9471 19.2045ZM57.9471 18.1626C55.908 18.1626 54.7702 16.3345 54.7702 14.1357C54.7702 11.9368 55.908 10.0831 57.9471 10.0831C59.9862 10.0831 61.1239 11.9368 61.1239 14.1357C61.1239 16.3345 59.9862 18.1626 57.9471 18.1626ZM68.3006 19.2045C70.084 19.2045 70.915 18.0732 71.3176 17.1783H71.4519V19H72.5641V5.90909H71.4199V11.0547H71.3176C70.9277 10.1726 70.1159 9.04759 68.3198 9.04759C65.8972 9.04759 64.2608 11.093 64.2608 14.1165C64.2608 17.1655 65.8908 19.2045 68.3006 19.2045ZM68.4348 18.1626C66.4789 18.1626 65.405 16.3857 65.405 14.0973C65.405 11.8345 66.4661 10.0831 68.4348 10.0831C70.3525 10.0831 71.4391 11.745 71.4391 14.0973C71.4391 16.4688 70.3397 18.1626 68.4348 18.1626ZM82.0435 15.2479C82.0435 17.0504 80.6884 18.022 79.3588 18.022C77.9398 18.022 76.9426 17.0057 76.9426 15.4716V9.18182H75.8049V15.5419C75.8049 17.8686 77.1472 19.1278 79.0328 19.1278C80.4711 19.1278 81.4938 18.38 81.954 17.37H82.0435V19H83.1813V9.18182H82.0435V15.2479ZM90.0288 19.2045C92.0742 19.2045 93.5124 17.9134 93.7745 16.1364H92.6239C92.3619 17.3892 91.3327 18.1626 90.0288 18.1626C88.1048 18.1626 86.8327 16.4879 86.8327 14.0973C86.8327 11.7195 88.1431 10.0831 90.0288 10.0831C91.4286 10.0831 92.3746 10.9844 92.6175 12.0966H93.7681C93.4996 10.2749 91.9783 9.04759 90.0096 9.04759C87.44 9.04759 85.6886 11.1825 85.6886 14.1357C85.6886 17.0632 87.3888 19.2045 90.0288 19.2045ZM100.08 9.18182H98.0028V6.82955H96.8587V9.18182H95.3949V10.1726H96.8587V16.7053C96.8587 18.3097 98.1243 19.147 99.3835 19.147C99.8565 19.147 100.176 19.0575 100.393 18.9744L100.151 17.9453C99.9908 17.9901 99.7862 18.0348 99.4858 18.0348C98.7124 18.0348 98.0028 17.6705 98.0028 16.4368V10.1726H100.08V9.18182ZM107.963 19H109.069V17.1783H109.21C109.606 18.0795 110.437 19.2045 112.227 19.2045C114.637 19.2045 116.267 17.1655 116.267 14.1165C116.267 11.093 114.63 9.04759 112.208 9.04759C110.411 9.04759 109.6 10.1726 109.21 11.0547H109.107V5.90909H107.963V19ZM109.088 14.0973C109.088 11.745 110.169 10.0831 112.086 10.0831C114.055 10.0831 115.122 11.8345 115.122 14.0973C115.122 16.3857 114.042 18.1626 112.086 18.1626C110.181 18.1626 109.088 16.4688 109.088 14.0973ZM119.207 22.6818C120.434 22.6818 121.335 21.9787 121.86 20.5533L126.021 9.20099L124.781 9.18182L121.866 17.4979H121.776L118.862 9.18182H117.628L121.24 19.0959L120.882 20.093C120.338 21.576 119.571 21.8381 118.414 21.4737L118.107 22.4773C118.338 22.5859 118.759 22.6818 119.207 22.6818Z" fill="white"/>
<g clip-path="url(#clip0)">
<path d="M53.2882 37.2148C57.5098 37.2148 60.2332 39.781 60.2332 47.3701C60.2332 54.9592 57.4949 57.5255 53.2882 57.5255C50.659 57.5255 48.9922 56.6335 47.9554 55.1088V65.5281C47.3399 65.696 46.7027 65.7699 46.0654 65.7475C45.4524 65.7717 44.8395 65.6977 44.2497 65.5281V37.8477C44.8328 37.6449 45.449 37.5553 46.0654 37.5836C46.706 37.5574 47.3461 37.6469 47.9554 37.8477V39.6316C48.9922 38.1068 50.659 37.2148 53.2882 37.2148ZM51.9885 40.2644C49.399 40.2644 47.9554 42.4221 47.9554 44.9534V49.7121C47.9554 52.2834 49.399 54.4759 51.9885 54.4759C54.965 54.4759 56.4532 52.9162 56.4532 47.3701C56.4532 41.8241 54.955 40.2644 51.9885 40.2644Z" fill="white"/>
<path d="M68.7359 33.8264C68.1139 34.0235 67.463 34.1128 66.8111 34.0905C66.1572 34.1241 65.5026 34.0345 64.8814 33.8264V30.3383C65.5026 30.1303 66.1572 30.0407 66.8111 30.0743C67.463 30.052 68.1139 30.1413 68.7359 30.3383V33.8264ZM68.6615 56.8976C68.0655 57.0964 67.4387 57.1859 66.8111 57.1617C66.1814 57.1977 65.5508 57.108 64.9558 56.8976V37.8477C65.5508 37.6374 66.1814 37.5476 66.8111 37.5836C67.4387 37.5595 68.0655 37.649 68.6615 37.8477V56.8976Z" fill="white"/>
<path d="M80.2546 37.2148C83.8859 37.2148 85.4783 38.2114 85.4783 38.2114C85.5079 39.1833 85.1632 40.1293 84.5159 40.8524C83.2543 40.4694 81.9446 40.2697 80.6266 40.2595C78.1067 40.2595 76.8467 41.1913 76.8467 42.9403C76.8467 44.6893 79.1831 45.2075 81.5146 45.9899C83.9207 46.7722 86.4407 47.9233 86.4407 51.5708C86.4407 55.328 84.1091 57.5205 79.4013 57.5205C75.5172 57.5205 73.2203 56.185 73.2203 56.185C73.1963 55.6827 73.2716 55.1805 73.4419 54.7075C73.6122 54.2346 73.8741 53.8002 74.2125 53.4295C75.8181 54.01 77.5069 54.3246 79.2129 54.3613C81.475 54.3613 82.7698 53.5042 82.7698 51.6805C82.7698 49.6374 80.7308 49.1889 78.5482 48.5562C76.0281 47.8136 73.2848 46.7324 73.2848 43.0499C73.2898 39.5569 75.5519 37.2148 80.2546 37.2148Z" fill="white"/>
<path d="M105.703 56.8976C105.107 57.0963 104.48 57.1859 103.853 57.1617C103.223 57.1913 102.594 57.1018 101.998 56.8976V43.5034C101.998 41.4156 100.926 40.2296 98.5548 40.2296C97.7157 40.2471 96.894 40.4734 96.1633 40.8883C95.4326 41.303 94.8157 41.8934 94.368 42.6065V56.8976C93.7709 57.0919 93.145 57.1813 92.5176 57.1617C91.8895 57.1975 91.2606 57.1077 90.6673 56.8976V29.4913C91.2615 29.285 91.89 29.197 92.5176 29.2321C93.1445 29.2134 93.7701 29.301 94.368 29.4913V39.5569C95.0741 38.7802 95.941 38.168 96.9076 37.7634C97.8743 37.3588 98.9174 37.1716 99.9637 37.2149C103.664 37.2149 105.703 39.4822 105.703 42.8307V56.8976Z" fill="white"/>
<path d="M110.858 37.8479C111.453 37.6484 112.08 37.559 112.708 37.5838C113.336 37.5533 113.964 37.6429 114.558 37.8479V51.2422C114.558 53.325 115.634 54.516 118.006 54.516C118.845 54.5016 119.668 54.276 120.399 53.86C121.13 53.4439 121.744 52.8506 122.188 52.1341V37.8479C122.786 37.6545 123.414 37.5652 124.043 37.5838C124.671 37.5481 125.3 37.6379 125.893 37.8479V56.8978C125.3 57.108 124.671 57.1977 124.043 57.1619C123.414 57.1805 122.786 57.0912 122.188 56.8978V55.1837C121.478 55.9597 120.608 56.5712 119.639 56.9756C118.671 57.38 117.625 57.5678 116.578 57.5257C112.872 57.5257 110.838 55.2585 110.838 51.9098L110.858 37.8479Z" fill="white"/>
<path d="M139.526 37.2499C140.668 37.2364 141.789 37.5604 142.75 38.1817C142.719 38.7901 142.558 39.3846 142.275 39.9239C141.994 40.4633 141.598 40.9349 141.118 41.3061C140.459 40.7973 139.652 40.5222 138.821 40.5238C137.377 40.5238 135.969 41.6399 135.006 43.354V56.8978C134.41 57.0966 133.783 57.1861 133.156 57.1619C132.526 57.197 131.895 57.1073 131.3 56.8978V37.8479C131.895 37.6385 132.526 37.5487 133.156 37.5838C133.783 37.5597 134.41 37.6491 135.006 37.8479V40.4141C136.42 38.0671 138.042 37.2499 139.526 37.2499Z" fill="white"/>
<path d="M148.862 48.5262C149.16 52.9511 150.935 54.3663 154.011 54.3663C155.535 54.3851 157.04 54.0129 158.381 53.285C159.112 53.9872 159.539 54.9503 159.567 55.9658C159.567 55.9658 157.453 57.5255 153.416 57.5255C147.715 57.5255 145.046 53.9925 145.046 47.2606C145.046 40.2295 148.326 37.2148 153.287 37.2148C157.84 37.2148 160.619 39.7412 160.619 44.6893C160.638 45.9801 160.501 47.2685 160.212 48.5262H148.862ZM153.287 40.1548C150.875 40.1548 149.174 41.7544 148.876 45.8802H156.814C156.884 45.325 156.922 44.7658 156.923 44.206C156.898 42.0135 156.01 40.1548 153.287 40.1548Z" fill="white"/>
<path d="M32.3985 33.2886H25.5031L30.0323 37.838C31.0528 38.8586 31.9442 40.0017 32.6863 41.2415C32.9392 41.66 33.1823 42.0886 33.4006 42.5321C33.5146 42.7513 33.6188 42.9755 33.7181 43.1997C33.7776 43.3343 33.8371 43.4688 33.8918 43.6033C33.9463 43.7379 34.0058 43.8724 34.0603 44.0119C34.1645 44.2861 34.2687 44.5651 34.363 44.8441C34.4325 45.0484 34.4969 45.2576 34.5614 45.467V35.4711C34.5627 35.185 34.5077 34.9014 34.3996 34.6366C34.2915 34.3719 34.1323 34.1312 33.9314 33.9284C33.7304 33.7256 33.4915 33.5647 33.2285 33.4549C32.9654 33.3451 32.6833 33.2886 32.3985 33.2886Z" fill="#F5A3AE"/>
<path d="M24.4416 33.2885L18.8111 27.6378C18.6102 27.4358 18.3717 27.2755 18.1091 27.1661C17.8465 27.0568 17.565 27.0005 17.2807 27.0005C16.9965 27.0005 16.715 27.0568 16.4524 27.1661C16.1898 27.2755 15.9512 27.4358 15.7503 27.6378L10.874 32.5361H17.2832C19.0252 32.5354 20.758 32.7889 22.4275 33.2885C23.6229 33.6441 24.777 34.1268 25.8702 34.7286L24.4416 33.2885Z" fill="#EF7586"/>
<path d="M34.5465 49.9216C34.5465 49.8468 34.5465 49.7771 34.5465 49.7073C34.5465 49.4631 34.5167 49.2091 34.4919 48.9798C34.4672 48.7505 34.4323 48.4268 34.3927 48.1526C34.353 47.8786 34.3084 47.6045 34.2538 47.3305C34.1992 47.0563 34.1447 46.7873 34.0752 46.5132C34.0058 46.2392 33.9512 46.0149 33.8768 45.7657C33.8768 45.6711 33.8223 45.5765 33.7924 45.4817C33.7379 45.3023 33.6784 45.123 33.6188 44.9486L33.589 44.8639C33.5196 44.6696 33.4453 44.4752 33.3708 44.2809L33.2815 44.0566C33.2087 43.8672 33.1294 43.6829 33.0434 43.5035L32.9689 43.3391C32.8797 43.1398 32.7805 42.9404 32.6813 42.7461L32.5473 42.492C32.4332 42.2678 32.3092 42.0485 32.1803 41.8292C32.0513 41.6099 31.9619 41.4704 31.8478 41.2911C31.7338 41.1117 31.5254 40.7928 31.3518 40.5585C31.2934 40.469 31.2305 40.3826 31.1633 40.2994C30.9897 40.0653 30.8111 39.8311 30.6275 39.6069C30.444 39.3826 30.3745 39.3029 30.2406 39.1534L30.072 38.9591C29.8834 38.7547 29.6949 38.5554 29.5014 38.3561C27.898 36.743 25.9933 35.4636 23.8966 34.5914C21.8 33.7192 19.5525 33.2713 17.2831 33.2734H2.1678C1.88143 33.2734 1.5979 33.3304 1.33359 33.4411C1.06927 33.5518 0.829405 33.7139 0.627841 33.9183C0.426277 34.1226 0.267011 34.365 0.15924 34.6315C0.0514702 34.898 -0.00266767 35.1833 -4.65053e-05 35.4709V50.6442C-4.65053e-05 50.8833 -4.65053e-05 51.1424 -4.65053e-05 51.3667C-4.65053e-05 51.4414 -4.65053e-05 51.5112 -4.65053e-05 51.5809C-4.65053e-05 51.8251 0.0297179 52.0792 0.0545216 52.3084C0.0793252 52.5377 0.11405 52.8616 0.153736 53.1356C0.193422 53.4097 0.238069 53.6888 0.292637 53.9628C0.347204 54.2369 0.426576 54.5059 0.496026 54.7801C0.565477 55.0541 0.620045 55.2783 0.689495 55.5125C0.758946 55.7467 0.882964 56.1454 0.9921 56.4543C1.05494 56.637 1.12439 56.8214 1.20045 57.0074C1.24013 57.1021 1.27486 57.1918 1.31454 57.2815C1.35424 57.3711 1.38895 57.4609 1.42865 57.5456C1.4682 57.649 1.5129 57.7505 1.56259 57.8496C1.59324 57.9245 1.62802 57.9976 1.66676 58.0688C1.67412 58.0971 1.68583 58.1239 1.70149 58.1485C1.78085 58.3179 1.86519 58.4874 1.95448 58.6468C1.97434 58.6958 1.99927 58.7426 2.0289 58.7863C2.04313 58.8231 2.06144 58.8583 2.08347 58.891C2.10859 58.9441 2.13675 58.9956 2.1678 59.0454C2.20759 59.1262 2.25232 59.2044 2.30173 59.2797C2.32441 59.3282 2.35095 59.3749 2.3811 59.4192L2.41583 59.474C2.47535 59.5786 2.53489 59.6833 2.60433 59.7879C2.67379 59.8925 2.74324 60.0171 2.81765 60.1268L2.85733 60.1866L2.94663 60.3261L3.02104 60.4308L3.12025 60.5752L3.19466 60.6748C3.24923 60.7596 3.31372 60.8443 3.37326 60.929L3.42782 61.0037C3.57334 61.1964 3.72215 61.3858 3.87428 61.5718L3.94373 61.6616L4.01319 61.7413C4.12728 61.8857 4.2513 62.0203 4.37036 62.1598L4.46461 62.2794L4.49437 62.3143L4.54399 62.3641C4.56092 62.3836 4.57915 62.402 4.59856 62.4189C4.74737 62.5884 4.90611 62.7528 5.09463 62.9172C5.28314 63.0816 5.49148 63.3059 5.69488 63.4903L5.82386 63.6048C5.94787 63.7195 6.06694 63.8241 6.19591 63.9287L6.30008 64.0185L6.38938 64.0882C6.55804 64.2277 6.73167 64.3623 6.88545 64.4918C6.89969 64.5078 6.91645 64.5213 6.93505 64.5317C7.11695 64.6712 7.30546 64.8058 7.50058 64.9353L7.6742 65.0599C7.75358 65.1147 7.82799 65.1646 7.90736 65.2094L7.95697 65.2443L8.08594 65.324L8.14051 65.354L8.20997 65.4037L8.29926 65.4585L8.39351 65.5134C8.60187 65.6396 8.81022 65.7592 9.01856 65.8721L9.08305 65.907L9.39062 66.0715C9.50968 66.1363 9.6337 66.196 9.75771 66.2508C9.95119 66.3455 10.1496 66.4352 10.348 66.5199C10.4334 66.5632 10.5212 66.6015 10.611 66.6345L10.8888 66.7491C11.0707 66.8255 11.2542 66.8953 11.4394 66.9584C11.747 67.0681 12.0595 67.1726 12.3769 67.2624C12.6184 67.3322 12.8615 67.3969 13.1062 67.4567C13.3791 67.5265 13.6469 67.5863 13.9198 67.6361C14.1926 67.6859 14.4654 67.7358 14.7433 67.7757C15.0211 67.8155 15.2889 67.8504 15.5668 67.8753C15.8446 67.9002 16.0628 67.9152 16.291 67.9301H16.5043C16.7424 67.9301 17.0004 67.9301 17.2236 67.9301C17.4468 67.9301 17.7196 67.9301 17.9429 67.9301H18.1513C18.3944 67.9301 18.6473 67.9002 18.8756 67.8753C19.1038 67.8504 19.4311 67.8155 19.704 67.7757C19.9768 67.7358 20.2496 67.6909 20.5225 67.6361C20.7953 67.5813 21.0632 67.5265 21.336 67.4567C21.6089 67.387 21.8322 67.3322 22.0653 67.2624L22.358 67.1726L22.8937 66.9983L22.9781 66.9684L23.5585 66.7491C23.7421 66.6794 23.9305 66.5997 24.1091 66.5149C24.2876 66.4302 24.506 66.3406 24.6994 66.2458H24.7293H24.7838C25.0021 66.1429 25.2153 66.0333 25.4237 65.917H25.4584C25.4942 65.8989 25.5289 65.879 25.5626 65.8572C25.7346 65.7642 25.9082 65.6645 26.0835 65.5582C26.2174 65.4834 26.3464 65.4037 26.4754 65.3141L26.535 65.2791L26.8177 65.0947C26.9715 64.9902 27.1202 64.8905 27.2641 64.7809L27.5172 64.6015L27.5617 64.5666C27.7503 64.4221 27.9388 64.2776 28.1224 64.1232L28.2116 64.0533L28.301 63.9786L28.3852 63.9038C28.4795 63.8291 28.5688 63.7494 28.6581 63.6646L28.7623 63.58L28.8268 63.5201C29.0301 63.3308 29.2286 63.1414 29.4221 62.9471C29.6155 62.7527 29.809 62.5485 29.9925 62.3442C30.1761 62.1399 30.2456 62.0602 30.3646 61.9156L30.5382 61.7163C30.5598 61.6868 30.5831 61.6586 30.6077 61.6316C30.7267 61.4821 30.8508 61.3226 30.9648 61.1682C30.9957 61.1338 31.0239 61.0972 31.0492 61.0585C31.1881 60.8725 31.322 60.6831 31.451 60.4906L31.5751 60.3161C31.6296 60.2364 31.6792 60.1616 31.7238 60.0819C31.7371 60.0665 31.7486 60.0498 31.7586 60.032L31.838 59.9025L31.8677 59.8477L31.9173 59.778C31.9406 59.7442 31.9621 59.7093 31.9817 59.6733L32.0364 59.5786C32.162 59.3693 32.2811 59.1601 32.3935 58.9508L32.4282 58.886C32.4779 58.8012 32.5226 58.7116 32.5671 58.6219C32.5688 58.6069 32.5688 58.5919 32.5671 58.577C32.6267 58.4574 32.6862 58.3378 32.7408 58.2182C32.835 58.0239 32.9244 57.8246 33.0086 57.6253C33.0517 57.5396 33.0898 57.4513 33.1228 57.3612C33.1625 57.2715 33.1972 57.1819 33.2369 57.0871C33.3129 56.9077 33.3823 56.7233 33.4453 56.5341C33.4453 56.4792 33.48 56.4244 33.4998 56.3696C33.589 56.1154 33.6734 55.8713 33.7479 55.5922C33.8222 55.3132 33.8818 55.0939 33.9413 54.8598C33.976 54.7252 34.0058 54.5957 34.0305 54.4661C34.0554 54.3366 34.0702 54.3016 34.0852 54.2219C34.0958 54.1742 34.1041 54.126 34.11 54.0774C34.112 54.0659 34.112 54.054 34.11 54.0425C34.1123 54.0243 34.1123 54.0059 34.11 53.9877C34.1397 53.8382 34.1645 53.6888 34.1894 53.5342L34.2191 53.3699C34.2191 53.32 34.2191 53.2701 34.2191 53.2153C34.2588 52.9413 34.2935 52.6672 34.3183 52.3882C34.3431 52.1091 34.358 51.8899 34.3728 51.6606C34.3728 51.5909 34.3728 51.5211 34.3728 51.4464C34.3728 51.2072 34.3728 50.9481 34.3728 50.7239C34.3728 50.4997 34.5564 50.1608 34.5465 49.9216ZM27.9437 51.1972C27.9437 51.3567 27.9437 51.5161 27.909 51.6707C27.8743 51.8251 27.909 51.8799 27.8743 51.9795C27.8396 52.0792 27.8445 52.2237 27.8247 52.3433C27.8048 52.4629 27.7751 52.6373 27.7453 52.7868C27.7156 52.9363 27.6809 53.0858 27.6412 53.2303C27.616 53.3498 27.5846 53.4679 27.5469 53.5841C27.5374 53.6369 27.5224 53.6888 27.5022 53.7385C27.4767 53.8439 27.4436 53.9471 27.403 54.0475C27.3683 54.1671 27.3286 54.2867 27.2839 54.4013C27.2394 54.5159 27.1847 54.6654 27.1302 54.795L27.0855 54.9045C27.031 55.0242 26.9765 55.1388 26.9268 55.2534C26.8773 55.3679 26.8821 55.3381 26.8623 55.378C26.8028 55.5076 26.7382 55.6321 26.6689 55.7566C26.5994 55.8812 26.5001 56.0606 26.4109 56.2051C26.3216 56.3497 26.2274 56.4991 26.1331 56.6436C26.0388 56.7881 25.9396 56.9226 25.8354 57.0623C25.7313 57.2018 25.5229 57.4659 25.3394 57.6602C25.255 57.7548 25.1708 57.8545 25.0814 57.9492L24.8135 58.2233C24.5736 58.4682 24.3203 58.6994 24.0545 58.9159L23.7668 59.1451C23.5882 59.2896 23.3998 59.4241 23.2062 59.5537L22.7995 59.8128C22.6953 59.8826 22.5812 59.9424 22.4721 60.0022C22.3937 60.0519 22.3127 60.0968 22.229 60.1367C22.0753 60.2214 21.9214 60.2961 21.7627 60.371L21.2666 60.5802L20.8103 60.7547H20.7507L20.3043 60.8991L19.8081 61.0287C19.6395 61.0685 19.4708 61.1084 19.3121 61.1384C19.1533 61.1682 18.816 61.223 18.6026 61.2529L18.2952 61.2878C18.1364 61.2878 17.9826 61.3177 17.8238 61.3226C17.6651 61.3276 17.4568 61.3226 17.2733 61.3226C17.0897 61.3226 16.9061 61.3226 16.7226 61.3226C16.539 61.3226 16.4051 61.3226 16.2514 61.2878L15.9438 61.2529C15.7057 61.223 15.4477 61.1881 15.2343 61.1384C15.0211 61.0885 14.897 61.0685 14.7383 61.0287L14.3315 60.919C14.2856 60.9103 14.2408 60.897 14.1976 60.8791L13.8355 60.7646L13.7164 60.7247L13.2699 60.5552C13.1112 60.4906 12.9525 60.4207 12.7986 60.346C12.6449 60.2712 12.4811 60.1965 12.3026 60.1118C12.219 60.0719 12.1378 60.0269 12.0595 59.9773L11.7321 59.7879L11.3253 59.5288C11.1318 59.3993 10.9433 59.2647 10.7647 59.1202L10.477 58.891C10.2141 58.6717 9.98095 58.4425 9.71803 58.1983C9.62378 58.1087 9.53448 58.0189 9.45015 57.9243C9.36581 57.8295 9.27653 57.7299 9.19219 57.6352C9.02683 57.4392 8.86148 57.2399 8.69612 57.0373C8.59029 56.8978 8.49107 56.7583 8.39848 56.6187C8.30422 56.4743 8.20997 56.3297 8.12067 56.1802C8.03138 56.0308 7.94705 55.8863 7.86272 55.7317C7.77839 55.5773 7.72877 55.4826 7.66925 55.353L7.60476 55.2284C7.57003 55.1487 7.53035 55.069 7.49562 54.9844C7.4609 54.8996 7.40633 54.7801 7.36664 54.6754C7.27735 54.4611 7.19797 54.2468 7.12853 54.0226C7.08804 53.9221 7.05487 53.8189 7.02931 53.7136C7.00922 53.6638 6.99426 53.6121 6.98467 53.5592C6.94694 53.443 6.91547 53.3249 6.89042 53.2054C6.85072 53.0609 6.816 52.9114 6.78623 52.7619C6.75647 52.6124 6.73167 52.4679 6.70686 52.3185C6.68206 52.1689 6.67214 52.0793 6.65726 51.9547C6.64237 51.8301 6.63245 51.7504 6.62253 51.6457C6.61261 51.5411 6.59277 51.3318 6.5878 51.1723C6.58285 51.0128 6.5878 50.8036 6.5878 50.6192C6.5878 50.4348 6.5878 50.2505 6.5878 50.0661C6.5878 49.8817 6.5878 49.7472 6.62253 49.5678C6.65726 49.3884 6.62253 49.3635 6.65726 49.2588C6.69198 49.1542 6.68702 49.0147 6.70686 48.8951C6.72671 48.7755 6.75647 48.6011 6.78623 48.4566C6.816 48.3121 6.84577 48.1776 6.88048 48.0431C6.90991 47.905 6.94634 47.7686 6.98962 47.6344C6.99825 47.5883 7.01155 47.5432 7.02931 47.4998C7.05634 47.395 7.08947 47.2919 7.12853 47.191C7.19797 46.9667 7.27735 46.7524 7.36664 46.5381C7.40633 46.4335 7.45097 46.3288 7.49562 46.2292L7.60476 45.99C7.62325 45.9453 7.64479 45.9021 7.66925 45.8605C7.72877 45.7309 7.79326 45.6063 7.86272 45.4817C7.93217 45.3572 8.03138 45.1779 8.12067 45.0333C8.20997 44.8888 8.30422 44.7393 8.39848 44.5947C8.49273 44.4503 8.59195 44.3157 8.69612 44.1762C8.8003 44.0367 9.00864 43.7726 9.19219 43.5783C9.27653 43.4835 9.36086 43.3839 9.45015 43.2892C9.53944 43.1946 9.62378 43.1048 9.71803 43.0152C9.96111 42.771 10.2141 42.5418 10.477 42.3225L10.7647 42.0933C10.9433 41.9489 11.1318 41.8143 11.3253 41.6848L11.7321 41.4256L12.0595 41.2363C12.1378 41.1866 12.219 41.1416 12.3026 41.1018C12.4563 41.017 12.6151 40.9373 12.7986 40.8675C12.9822 40.7978 13.1112 40.723 13.2699 40.6583L13.7164 40.4888L13.8355 40.449L14.1976 40.3344C14.2408 40.3165 14.2856 40.3032 14.3315 40.2945L14.7383 40.1848C14.902 40.145 15.0706 40.1051 15.2343 40.0752C15.3981 40.0453 15.7057 39.9906 15.9438 39.9606L16.2514 39.9258C16.4051 39.9258 16.5638 39.8958 16.7226 39.8909C16.8813 39.8859 17.0897 39.8909 17.2733 39.8909C17.4568 39.8909 17.6403 39.8909 17.8238 39.8909C18.0074 39.8909 18.1364 39.8909 18.2952 39.9258L18.6026 39.9606C18.8409 39.9906 19.0988 40.0254 19.3121 40.0752C19.5254 40.1251 19.6445 40.145 19.8081 40.1848L20.3043 40.3145L20.7507 40.4589H20.8103L21.2666 40.6333C21.4254 40.6997 21.5907 40.7696 21.7627 40.8426C21.9214 40.9174 22.0753 40.9921 22.229 41.0768C22.3127 41.1167 22.3937 41.1617 22.4721 41.2113C22.5812 41.2711 22.6953 41.3309 22.7995 41.4007L23.2062 41.6598C23.3998 41.7893 23.5882 41.9239 23.7668 42.0685L24.0545 42.2976C24.3203 42.5141 24.5736 42.7453 24.8135 42.9903L25.0814 43.2643C25.1708 43.359 25.255 43.4587 25.3394 43.5533C25.5048 43.7493 25.6701 43.9486 25.8354 44.1513C25.938 44.2908 26.0372 44.4304 26.1331 44.5699C26.2274 44.7143 26.3216 44.8588 26.4109 45.0084C26.5001 45.1579 26.5845 45.3023 26.6689 45.4569C26.7532 45.6113 26.8028 45.706 26.8623 45.8356C26.8868 45.8772 26.9083 45.9205 26.9268 45.9652L27.0855 46.3089L27.1302 46.4186C27.1847 46.5482 27.2344 46.6777 27.2839 46.8123C27.3336 46.9468 27.3683 47.0464 27.403 47.166C27.4421 47.2669 27.4752 47.3701 27.5022 47.475C27.52 47.5183 27.5333 47.5634 27.5419 47.6095C27.5852 47.7438 27.6217 47.8801 27.6511 48.0181C27.6858 48.1526 27.7206 48.2921 27.7453 48.4317C27.7701 48.5712 27.7999 48.7257 27.8247 48.8702C27.8495 49.0147 27.8595 49.1094 27.8743 49.2339C27.8892 49.3585 27.8991 49.4382 27.909 49.5429C27.919 49.6475 27.9388 49.8569 27.9437 50.0412C27.9487 50.2255 27.9437 50.4099 27.9437 50.5943C27.9437 50.7787 27.9537 51.0128 27.9437 51.1972Z" fill="#E51935"/>
</g>
<defs>
<clipPath id="clip0">
<rect width="161" height="41" fill="white" transform="translate(0 27)"/>
</clipPath>
</defs>
</svg>
