<svg width="46" height="44" viewBox="0 0 46 44" fill="none" xmlns="http://www.w3.org/2000/svg">
<g clip-path="url(#clip0)">
<path d="M37.0808 0.551758H7.97664C3.57127 0.551758 0 4.12302 0 8.5284V36.0234C0 40.4288 3.57127 44 7.97664 44H37.0808C41.4862 44 45.0575 40.4288 45.0575 36.0234V8.5284C45.0575 4.12302 41.4862 0.551758 37.0808 0.551758Z" fill="#470137"/>
<path d="M23.7362 12.1536L18.1991 21.0659L24.1236 30.7142C24.1614 30.7823 24.1721 30.862 24.1535 30.9376C24.133 31.0073 24.0639 31.0521 23.9449 31.0716H19.7176C19.5961 31.0838 19.4736 31.0626 19.3634 31.0101C19.2532 30.9575 19.1595 30.8758 19.0925 30.7738C18.6949 29.9998 18.2981 29.2877 17.9013 28.5233C17.5045 27.7596 17.0829 26.9806 16.6363 26.1863C16.19 25.3929 15.7484 24.5892 15.3115 23.7751H15.2817C14.8845 24.5691 14.4728 25.3629 14.0465 26.1567C13.6191 26.9507 13.1972 27.7396 12.7811 28.5233C12.3642 29.3077 11.9376 30.0297 11.5007 30.8036C11.4684 30.8865 11.4108 30.9571 11.336 31.0052C11.2612 31.0533 11.1731 31.0765 11.0843 31.0716H7.00548C6.98873 31.0733 6.97181 31.0715 6.9558 31.0663C6.93978 31.0611 6.92502 31.0526 6.91246 31.0414C6.89989 31.0302 6.8898 31.0165 6.88282 31.0012C6.87584 30.9859 6.87213 30.9693 6.87192 30.9525C6.86032 30.8799 6.87615 30.8056 6.91632 30.7441L12.662 21.3637L7.06517 12.1237C7.00546 12.0447 6.99603 11.9801 7.03532 11.9302C7.05732 11.9048 7.08492 11.8849 7.11594 11.872C7.14695 11.8591 7.18054 11.8535 7.21407 11.8558H11.4119C11.5034 11.8508 11.5949 11.8661 11.6798 11.9005C11.7508 11.941 11.8118 11.9969 11.8582 12.0642C12.2157 12.8582 12.6125 13.4253 13.049 14.2187C13.4855 15.0129 13.927 15.7969 14.3737 16.5707C14.8204 17.3446 15.2323 18.1286 15.6093 18.9226H15.6392C16.036 18.1089 16.4377 17.3151 16.8445 16.541C17.2515 15.7668 17.6683 14.9878 18.095 14.204C18.5216 13.4202 18.933 12.868 19.3306 12.094C19.3532 12.0205 19.3942 11.9539 19.4496 11.9005C19.5231 11.8631 19.6057 11.8476 19.6877 11.8557H23.5877C23.6253 11.8465 23.6649 11.8504 23.7001 11.8666C23.7352 11.8829 23.7637 11.9106 23.781 11.9453C23.7983 11.9799 23.8032 12.0194 23.7951 12.0572C23.787 12.0951 23.7662 12.129 23.7362 12.1535L23.7362 12.1536Z" fill="#FF61F6"/>
<path d="M31.9787 31.426C30.6084 31.4468 29.2507 31.162 28.0044 30.5923C26.8432 30.0549 25.8724 29.1777 25.2205 28.0767C24.5044 26.7915 24.1543 25.3345 24.2084 23.8642C24.1972 22.4979 24.5463 21.1528 25.2205 19.9644C25.9151 18.7539 26.9365 17.7635 28.1678 17.1064C29.6087 16.356 31.2178 15.987 32.8418 16.0347C32.9412 16.0347 33.0702 16.0397 33.2288 16.0496C33.3875 16.0599 33.7255 16.0748 33.9439 16.0942V10.8273C33.9268 10.7022 33.9596 10.5755 34.0353 10.4745C34.1111 10.3735 34.2235 10.3064 34.3484 10.2878H37.2297C37.3724 10.2883 37.509 10.3451 37.6098 10.4459C37.7107 10.5468 37.7675 10.6834 37.7679 10.826V27.7939C37.7679 28.1315 37.7827 28.4987 37.8123 28.8955C37.8422 29.2927 37.8671 29.6499 37.887 29.967C37.8906 30.0288 37.8756 30.0903 37.8437 30.1435C37.8119 30.1966 37.7648 30.2389 37.7086 30.2648C36.787 30.6674 35.8238 30.967 34.8364 31.158C33.8937 31.332 32.9373 31.4217 31.9787 31.426ZM33.8747 27.7344V19.6071C33.6866 19.5641 33.4957 19.5343 33.3034 19.5179C33.1006 19.4974 32.8968 19.4874 32.6929 19.488C31.9706 19.4808 31.2567 19.644 30.6091 19.9643C29.9154 20.2951 29.3372 20.8268 28.9496 21.4904C28.5621 22.154 28.383 22.9189 28.4358 23.6856C28.4214 24.3345 28.5275 24.9805 28.7485 25.5908C28.9283 26.0827 29.2128 26.5296 29.5822 26.9008C29.9356 27.2423 30.3636 27.4971 30.8323 27.645C31.3274 27.8053 31.8449 27.8857 32.3653 27.8832C32.6434 27.8832 32.9015 27.8733 33.1396 27.8534C33.3878 27.8364 33.6339 27.7966 33.8747 27.7344Z" fill="#FF61F6"/>
</g>
<defs>
<clipPath id="clip0">
<rect width="45.0575" height="43.4483" fill="white" transform="translate(0 0.551758)"/>
</clipPath>
</defs>
</svg>
